0
SECTION
2
HEADER
9
$INSUNITS
70
4
9
$ACADVER
1
AC1014
9
$HANDSEED
5
FFFF
0
ENDSEC
0
SECTION
2
TABLES
0
TABLE
2
VPORT
5
8
100
AcDbSymbolTable
0
ENDTAB
0
TABLE
2
LTYPE
5
5
100
AcDbSymbolTable
0
LTYPE
5
14
100
AcDbSymbolTableRecord
100
AcDbLinetypeTableRecord
2
BYBLOCK
70
0
0
LTYPE
5
15
100
AcDbSymbolTableRecord
100
AcDbLinetypeTableRecord
2
BYLAYER
70
0
0
ENDTAB
0
TABLE
2
LAYER
5
2
100
AcDbSymbolTable
70
2
0
LAYER
5
50
100
AcDbSymbolTableRecord
100
AcDbLayerTableRecord
2
0
70
0
6
CONTINUOUS
0
ENDTAB
0
TABLE
2
STYLE
5
3
100
AcDbSymbolTable
70
1
0
STYLE
5
11
100
AcDbSymbolTableRecord
100
AcDbTextStyleTableRecord
2
STANDARD
70
0
0
ENDTAB
0
TABLE
2
VIEW
5
6
100
AcDbSymbolTable
70
0
0
ENDTAB
0
TABLE
2
UCS
5
7
100
AcDbSymbolTable
70
0
0
ENDTAB
0
TABLE
2
APPID
5
9
100
AcDbSymbolTable
70
2
0
APPID
5
12
100
AcDbSymbolTableRecord
100
AcDbRegAppTableRecord
2
ACAD
70
0
0
ENDTAB
0
TABLE
2
DIMSTYLE
5
A
100
AcDbSymbolTable
70
1
0
ENDTAB
0
TABLE
2
BLOCK_RECORD
5
1
100
AcDbSymbolTable
70
1
0
BLOCK_RECORD
5
1F
100
AcDbSymbolTableRecord
100
AcDbBlockTableRecord
2
*MODEL_SPACE
0
BLOCK_RECORD
5
1B
100
AcDbSymbolTableRecord
100
AcDbBlockTableRecord
2
*PAPER_SPACE
0
ENDTAB
0
ENDSEC
0
SECTION
2
BLOCKS
0
BLOCK
5
20
100
AcDbEntity
100
AcDbBlockBegin
2
*MODEL_SPACE
0
ENDBLK
5
21
100
AcDbEntity
100
AcDbBlockEnd
0
BLOCK
5
1C
100
AcDbEntity
100
AcDbBlockBegin
2
*PAPER_SPACE
0
ENDBLK
5
1D
100
AcDbEntity
100
AcDbBlockEnd
0
ENDSEC
0
SECTION
2
ENTITIES
0
LWPOLYLINE
5
100
100
AcDbEntity
8
OUTER_PROFILES
100
AcDbPolyline
90
16
70
1
43
0.0
10
-56.084141366332801
20
39.574940683166353
10
-62.434141366332803
20
45.924940683166355
10
-62.434141366332803
20
211.02494068316639
10
-56.084141366332823
20
217.37494068316636
10
1.7763568394002505e-14
20
217.37494068316639
10
0
20
256.94988136633276
10
254
20
256.94988136633276
10
254
20
217.37494068316639
10
310.0841413663328
20
217.37494068316636
10
316.43414136633277
20
211.02494068316639
10
316.43414136633277
20
45.924940683166398
10
310.0841413663328
20
39.574940683166389
10
254
20
39.574940683166375
10
254
20
0
10
0
20
0
10
1.7763568394002505e-14
20
39.574940683166375
0
LWPOLYLINE
5
101
100
AcDbEntity
8
INTERIOR_PROFILES
100
AcDbPolyline
90
4
70
1
43
0.0
10
262.0116306831664
20
49.09994068316638
10
285.82413068316635
20
49.09994068316638
10
285.82413068316635
20
58.624940683166372
10
262.0116306831664
20
58.624940683166372
0
CIRCLE
5
102
100
AcDbEntity
8
INTERIOR_PROFILES
100
AcDbCircle
10
-302.8934013663328
20
71.324940683166375
30
0
40
2.7781249999999957
210
0
220
0
230
-1
0
CIRCLE
5
103
100
AcDbEntity
8
INTERIOR_PROFILES
100
AcDbCircle
10
-55.5625
20
87.199940683166119
30
0
40
1.5875000000000039
210
0
220
0
230
-1
0
CIRCLE
5
104
100
AcDbEntity
8
INTERIOR_PROFILES
100
AcDbCircle
10
48.89340136633281
20
71.324940683166375
30
0
40
2.7781249999999957
210
0
220
0
230
-1
0
CIRCLE
5
105
100
AcDbEntity
8
INTERIOR_PROFILES
100
AcDbCircle
10
-302.8934013663328
20
185.62494068316639
30
0
40
2.7781249999999957
210
0
220
0
230
-1
0
CIRCLE
5
106
100
AcDbEntity
8
INTERIOR_PROFILES
100
AcDbCircle
10
48.89340136633281
20
185.62494068316636
30
0
40
2.7781249999999957
210
0
220
0
230
-1
0
CIRCLE
5
107
100
AcDbEntity
8
INTERIOR_PROFILES
100
AcDbCircle
10
-104.71037627783969
20
150.30306568316635
30
0
40
1.587499999999995
210
0
220
0
230
-1
0
CIRCLE
5
108
100
AcDbEntity
8
INTERIOR_PROFILES
100
AcDbCircle
10
-241.07499999999999
20
99.824940683166375
30
0
40
1.5875000000000128
210
0
220
0
230
-1
0
LWPOLYLINE
5
109
100
AcDbEntity
8
INTERIOR_PROFILES
100
AcDbPolyline
90
8
70
1
43
0.0
10
65.087499999970731
20
47.512440683164073
10
65.087499999971641
20
49.893690683164074
10
46.037499999971644
20
49.89369068316816
10
46.037499999971189
20
47.512440683164073
10
49.21250000000002
20
47.512440683164073
10
49.212500000000006
20
45.131190683164071
10
61.912500000000001
20
45.131190683164071
10
61.912500000000001
20
47.512440683164073
0
LWPOLYLINE
5
110
100
AcDbEntity
8
INTERIOR_PROFILES
100
AcDbPolyline
90
4
70
1
43
0.0
10
131.76249999999999
20
88.637440683166375
10
131.76249999999999
20
112.8468156831664
10
109.93437499999999
20
112.8468156831664
10
109.93437499999999
20
88.637440683166375
0
CIRCLE
5
111
100
AcDbEntity
8
INTERIOR_PROFILES
100
AcDbCircle
10
-88.90000000000002
20
177.68744068316639
30
0
40
26.987500000000004
210
0
220
0
230
-1
0
CIRCLE
5
112
100
AcDbEntity
8
INTERIOR_PROFILES
100
AcDbCircle
10
-14.351000000000012
20
139.19056568316643
30
0
40
9.921875
210
0
220
0
230
-1
0
LWPOLYLINE
5
113
100
AcDbEntity
8
INTERIOR_PROFILES
100
AcDbPolyline
90
2
70
1
43
0.0
10
167.2819591018613
20
64.027294489104591
42
-4.269750488116256
10
162.17084862213841
20
66.410644447475619
0
LWPOLYLINE
5
114
100
AcDbEntity
8
INTERIOR_PROFILES
100
AcDbPolyline
90
8
70
1
43
0.0
10
46.037499999999611
20
126.88744068316612
10
46.037500000000065
20
124.50619068316612
10
65.087500000000091
20
124.50619068316612
10
65.087500000000333
20
126.88744068316612
10
61.912500000000101
20
126.88744068316616
10
61.91250000000008
20
129.26869068316617
10
49.212500000000084
20
129.26869068316614
10
49.212500000000084
20
126.88744068316615
0
CIRCLE
5
115
100
AcDbEntity
8
INTERIOR_PROFILES
100
AcDbCircle
10
-193.49007591684099
20
74.34994068316638
30
0
40
1.5875000000000128
210
0
220
0
230
-1
0
CIRCLE
5
116
100
AcDbEntity
8
INTERIOR_PROFILES
100
AcDbCircle
10
-145.82499999999996
20
205.39369068316637
30
0
40
2.7781249999999957
210
0
220
0
230
-1
0
CIRCLE
5
117
100
AcDbEntity
8
INTERIOR_PROFILES
100
AcDbCircle
10
-88.900000000000006
20
87.199940683166403
30
0
40
1.587499999999995
210
0
220
0
230
-1
0
CIRCLE
5
118
100
AcDbEntity
8
INTERIOR_PROFILES
100
AcDbCircle
10
-55.562500000000256
20
118.94994068316613
30
0
40
1.5875000000000039
210
0
220
0
230
-1
0
CIRCLE
5
119
100
AcDbEntity
8
INTERIOR_PROFILES
100
AcDbCircle
10
-104.71037627783969
20
205.07181568316639
30
0
40
1.587499999999995
210
0
220
0
230
-1
0
CIRCLE
5
120
100
AcDbEntity
8
INTERIOR_PROFILES
100
AcDbCircle
10
-241.07499999999993
20
129.19369068316638
30
0
40
2.7781249999999957
210
0
220
0
230
-1
0
CIRCLE
5
121
100
AcDbEntity
8
INTERIOR_PROFILES
100
AcDbCircle
10
-26.193750000000051
20
75.293690683166417
30
0
40
2.3812500000000014
210
0
220
0
230
-1
0
LWPOLYLINE
5
122
100
AcDbEntity
8
INTERIOR_PROFILES
100
AcDbPolyline
90
4
70
1
43
0.0
10
109.93437499999999
20
71.174940683166398
10
109.93437499999999
20
63.23744068316639
10
131.76249999999999
20
63.23744068316639
10
131.76249999999999
20
71.174940683166398
0
LWPOLYLINE
5
123
100
AcDbEntity
8
INTERIOR_PROFILES
100
AcDbPolyline
90
8
70
1
43
0.0
10
234.94999999999999
20
135.46869068316639
10
234.94999999999999
20
199.11869068316636
42
0.41421356237309176
10
231.77499999999998
20
202.2936906831664
10
155.125
20
202.2936906831664
42
0.41421356237309509
10
151.94999999999999
20
199.11869068316639
10
151.94999999999999
20
135.46869068316639
42
0.41421356237309509
10
155.125
20
132.2936906831664
10
231.77499999999995
20
132.29369068316635
42
0.41421356237309509
0
LWPOLYLINE
5
124
100
AcDbEntity
8
INTERIOR_PROFILES
100
AcDbPolyline
90
6
70
1
43
0.0
10
38.100000000000023
20
195.14994068316639
10
6.3500000000000156
20
195.14994068316639
10
6.3500000000000156
20
158.63744068316637
10
27.781250000000011
20
158.6374406831664
10
27.781250000000011
20
178.48119068316637
10
38.100000000000023
20
178.48119068316637
0
LWPOLYLINE
5
125
100
AcDbEntity
8
INTERIOR_PROFILES
100
AcDbPolyline
90
4
70
1
43
0.0
10
153.19374999999999
20
103.71869068316639
10
153.19374999999997
20
88.637440683166375
10
171.44999999999996
20
88.637440683166375
10
171.44999999999996
20
103.71869068316639
0
LWPOLYLINE
5
126
100
AcDbEntity
8
INTERIOR_PROFILES
100
AcDbPolyline
90
4
70
1
43
0.0
10
109.93437499999999
20
53.712440683166392
10
109.93437499999999
20
45.774940683166378
10
131.76249999999999
20
45.774940683166385
10
131.76249999999999
20
53.712440683166392
0
CIRCLE
5
127
100
AcDbEntity
8
INTERIOR_PROFILES
100
AcDbCircle
10
-145.82499999999993
20
129.19369068316638
30
0
40
2.7781249999999957
210
0
220
0
230
-1
0
CIRCLE
5
128
100
AcDbEntity
8
INTERIOR_PROFILES
100
AcDbCircle
10
-241.07499999999999
20
205.39369068316637
30
0
40
2.7781249999999957
210
0
220
0
230
-1
0
CIRCLE
5
129
100
AcDbEntity
8
INTERIOR_PROFILES
100
AcDbCircle
10
-57.279247444320717
20
177.68744068316639
30
0
40
1.5875000000000039
210
0
220
0
230
-1
0
CIRCLE
5
130
100
AcDbEntity
8
INTERIOR_PROFILES
100
AcDbCircle
10
-55.562499999999758
20
55.449940683166126
30
0
40
1.5875000000000039
210
0
220
0
230
-1
0
LINE
5
131
100
AcDbEntity
8
BEND
100
AcDbLine
10
253.99999999999991
20
218.71947102474957
30
-3.3306690738754696e-15
11
0
21
218.71947102474957
31
-7.7715611723760958e-15
0
LINE
5
132
100
AcDbEntity
8
BEND
100
AcDbLine
10
255.34453034158321
20
39.574940683166375
30
-1.1102230246250049e-15
11
255.34453034158327
21
217.37494068316639
31
-1.1102230246249861e-15
0
LINE
5
133
100
AcDbEntity
8
BEND
100
AcDbLine
10
1.2434497875801753e-13
20
38.230410341583166
30
-3.3306690738754696e-15
11
254.00000000000006
21
38.230410341583166
31
-7.7715611723760958e-15
0
LINE
5
134
100
AcDbEntity
8
BEND
100
AcDbLine
10
-1.3445303415831766
20
39.574940683166368
30
-1.1102230246251567e-15
11
-1.3445303415831766
21
217.37494068316636
31
-1.110223024625151e-15
0
LINE
5
135
100
AcDbEntity
8
BEND
100
AcDbLine
10
292.49123102474948
20
39.574940683166382
30
-4.3576253716535816e-14
11
292.49123102474948
21
217.37494068316639
31
-4.3576253716535842e-14
0
LINE
5
136
100
AcDbEntity
8
BEND
100
AcDbLine
10
-38.491231024749567
20
39.574940683166361
30
-4.3576253716537053e-14
11
-38.491231024749567
21
217.37494068316636
31
-4.3576253716537028e-14
0
LINE
5
137
100
AcDbEntity
8
BEND_EXTENT
100
AcDbLine
10
-39.835761366332783
20
39.574940683166353
30
-6.4735606945880885e-14
11
-39.835761366332783
21
217.37494068316636
31
-6.4735606945880885e-14
0
LINE
5
138
100
AcDbEntity
8
BEND_EXTENT
100
AcDbLine
10
293.83576136633275
20
217.37494068316636
30
-3.7747582837258743e-14
11
293.83576136633275
21
39.574940683166382
31
-3.7747582837258743e-14
0
LINE
5
139
100
AcDbEntity
8
BEND_EXTENT
100
AcDbLine
10
1.7763568394002505e-14
20
220.06400136633275
30
0
11
253.99999999999983
21
220.06400136633275
31
0
0
LWPOLYLINE
5
140
100
AcDbEntity
8
BEND_EXTENT
100
AcDbPolyline
90
4
70
1
43
0.0
10
1.7763568394002505e-14
20
217.37494068316639
10
254
20
217.37494068316639
10
254
20
39.574940683166375
10
0
20
39.574940683166382
0
LINE
5
141
100
AcDbEntity
8
BEND_EXTENT
100
AcDbLine
10
254
20
36.885879999999993
30
0
11
1.4210854715202004e-13
21
36.885879999999993
31
0
0
LINE
5
142
100
AcDbEntity
8
BEND_EXTENT
100
AcDbLine
10
-2.689060683166371
20
39.574940683166361
30
-1.7763568394002505e-14
11
-2.689060683166371
21
217.37494068316636
31
-1.7763568394002505e-14
0
LINE
5
143
100
AcDbEntity
8
BEND_EXTENT
100
AcDbLine
10
-37.146700683166372
20
217.37494068316639
30
-1.7763568394002505e-14
11
-37.146700683166372
21
39.574940683166382
31
-1.7763568394002505e-14
0
LINE
5
144
100
AcDbEntity
8
BEND_EXTENT
100
AcDbLine
10
256.68906068316636
20
217.37494068316636
30
-1.7763568394002505e-14
11
256.68906068316636
21
39.574940683166382
31
-1.7763568394002505e-14
0
LINE
5
145
100
AcDbEntity
8
BEND_EXTENT
100
AcDbLine
10
291.14670068316639
20
39.574940683166382
30
-1.7763568394002505e-14
11
291.14670068316639
21
217.37494068316639
31
-1.7763568394002505e-14
0
ENDSEC
0
SECTION
2
OBJECTS
0
DICTIONARY
5
C
100
AcDbDictionary
3
ACAD_GROUP
350
D
3
ACAD_MLINESTYLE
350
17
0
DICTIONARY
5
D
100
AcDbDictionary
0
DICTIONARY
5
1A
330
C
100
AcDbDictionary
0
DICTIONARY
5
17
100
AcDbDictionary
0
ENDSEC
0
EOF
