0
SECTION
2
HEADER
9
$INSUNITS
70
1
9
$ACADVER
1
AC1014
9
$HANDSEED
5
FFFF
0
ENDSEC
0
SECTION
2
TABLES
0
TABLE
2
VPORT
5
8
100
AcDbSymbolTable
0
ENDTAB
0
TABLE
2
LTYPE
5
5
100
AcDbSymbolTable
0
LTYPE
5
14
100
AcDbSymbolTableRecord
100
AcDbLinetypeTableRecord
2
BYBLOCK
70
0
0
LTYPE
5
15
100
AcDbSymbolTableRecord
100
AcDbLinetypeTableRecord
2
BYLAYER
70
0
0
ENDTAB
0
TABLE
2
LAYER
5
2
100
AcDbSymbolTable
70
2
0
LAYER
5
50
100
AcDbSymbolTableRecord
100
AcDbLayerTableRecord
2
0
70
0
6
CONTINUOUS
0
ENDTAB
0
TABLE
2
STYLE
5
3
100
AcDbSymbolTable
70
1
0
STYLE
5
11
100
AcDbSymbolTableRecord
100
AcDbTextStyleTableRecord
2
STANDARD
70
0
0
ENDTAB
0
TABLE
2
VIEW
5
6
100
AcDbSymbolTable
70
0
0
ENDTAB
0
TABLE
2
UCS
5
7
100
AcDbSymbolTable
70
0
0
ENDTAB
0
TABLE
2
APPID
5
9
100
AcDbSymbolTable
70
2
0
APPID
5
12
100
AcDbSymbolTableRecord
100
AcDbRegAppTableRecord
2
ACAD
70
0
0
ENDTAB
0
TABLE
2
DIMSTYLE
5
A
100
AcDbSymbolTable
70
1
0
ENDTAB
0
TABLE
2
BLOCK_RECORD
5
1
100
AcDbSymbolTable
70
1
0
BLOCK_RECORD
5
1F
100
AcDbSymbolTableRecord
100
AcDbBlockTableRecord
2
*MODEL_SPACE
0
BLOCK_RECORD
5
1B
100
AcDbSymbolTableRecord
100
AcDbBlockTableRecord
2
*PAPER_SPACE
0
ENDTAB
0
ENDSEC
0
SECTION
2
BLOCKS
0
BLOCK
5
20
100
AcDbEntity
100
AcDbBlockBegin
2
*MODEL_SPACE
0
ENDBLK
5
21
100
AcDbEntity
100
AcDbBlockEnd
0
BLOCK
5
1C
100
AcDbEntity
100
AcDbBlockBegin
2
*PAPER_SPACE
0
ENDBLK
5
1D
100
AcDbEntity
100
AcDbBlockEnd
0
ENDSEC
0
SECTION
2
ENTITIES
0
LWPOLYLINE
5
100
100
AcDbEntity
8
OUTER_PROFILES
100
AcDbPolyline
90
16
70
1
43
0.0
10
-2.2080370616666456
20
1.5580685308333209
10
-2.4580370616666456
20
1.8080685308333209
10
-2.4580370616666456
20
8.3080685308333209
10
-2.2080370616666465
20
8.5580685308333209
10
6.9935308637805131e-16
20
8.5580685308333226
10
0
20
10.116137061666642
10
9.9999999999999982
20
10.116137061666642
10
9.9999999999999982
20
8.5580685308333226
10
12.208037061666644
20
8.5580685308333209
10
12.458037061666642
20
8.3080685308333209
10
12.458037061666642
20
1.8080685308333226
10
12.208037061666644
20
1.5580685308333224
10
9.9999999999999982
20
1.5580685308333218
10
9.9999999999999982
20
0
10
0
20
0
10
6.9935308637805131e-16
20
1.5580685308333218
0
LWPOLYLINE
5
101
100
AcDbEntity
8
INTERIOR_PROFILES
100
AcDbPolyline
90
4
70
1
43
0.0
10
10.315418530833321
20
1.9330685308333218
10
11.25291853083332
20
1.9330685308333218
10
11.25291853083332
20
2.3080685308333218
10
10.315418530833321
20
2.3080685308333218
0
CIRCLE
5
102
100
AcDbEntity
8
INTERIOR_PROFILES
100
AcDbCircle
10
1.9249370616666461
20
2.8080685308333213
30
0
40
0.10937499999999982
210
0
220
0
230
-1
0
CIRCLE
5
103
100
AcDbEntity
8
INTERIOR_PROFILES
100
AcDbCircle
10
-11.924937061666643
20
2.8080685308333213
30
0
40
0.10937499999999982
210
0
220
0
230
-1
0
CIRCLE
5
104
100
AcDbEntity
8
INTERIOR_PROFILES
100
AcDbCircle
10
1.9249370616666461
20
7.30806853083332
30
0
40
0.10937499999999982
210
0
220
0
230
-1
0
CIRCLE
5
105
100
AcDbEntity
8
INTERIOR_PROFILES
100
AcDbCircle
10
-11.924937061666643
20
7.3080685308333218
30
0
40
0.10937499999999982
210
0
220
0
230
-1
0
CIRCLE
5
106
100
AcDbEntity
8
INTERIOR_PROFILES
100
AcDbCircle
10
-2.1875
20
3.433068530833312
30
0
40
0.062500000000000153
210
0
220
0
230
-1
0
CIRCLE
5
107
100
AcDbEntity
8
INTERIOR_PROFILES
100
AcDbCircle
10
-4.1224557589700659
20
5.9174435308333209
30
0
40
0.062499999999999799
210
0
220
0
230
-1
0
CIRCLE
5
108
100
AcDbEntity
8
INTERIOR_PROFILES
100
AcDbCircle
10
-9.491141732283463
20
3.9301157749278093
30
0
40
0.0625000000000005
210
0
220
0
230
-1
0
LWPOLYLINE
5
109
100
AcDbEntity
8
INTERIOR_PROFILES
100
AcDbPolyline
90
8
70
1
43
0.0
10
2.5624999999988476
20
1.8705685308332312
10
2.5624999999988831
20
1.9643185308332312
10
1.8124999999988836
20
1.9643185308333919
10
1.8124999999988654
20
1.8705685308332312
10
1.9375000000000007
20
1.8705685308332312
10
1.9375
20
1.7768185308332312
10
2.4375
20
1.7768185308332312
10
2.4375
20
1.8705685308332312
0
LWPOLYLINE
5
110
100
AcDbEntity
8
INTERIOR_PROFILES
100
AcDbPolyline
90
4
70
1
43
0.0
10
5.1874999999999991
20
3.4896630190222981
10
5.1874999999999991
20
4.4427880190222986
10
4.3281249999999991
20
4.4427880190222986
10
4.3281249999999991
20
3.4896630190222981
0
CIRCLE
5
111
100
AcDbEntity
8
INTERIOR_PROFILES
100
AcDbCircle
10
-3.5000000000000004
20
6.9955685308333218
30
0
40
1.0625
210
0
220
0
230
-1
0
CIRCLE
5
112
100
AcDbEntity
8
INTERIOR_PROFILES
100
AcDbCircle
10
-0.63000000000000067
20
5.4799435308333226
30
0
40
0.39062499999999994
210
0
220
0
230
-1
0
LWPOLYLINE
5
113
100
AcDbEntity
8
INTERIOR_PROFILES
100
AcDbPolyline
90
2
70
1
43
0.0
10
6.5859039016480825
20
2.5207596255552986
42
-4.269750488116256
10
6.3846790796117485
20
2.6145923010817174
0
LWPOLYLINE
5
114
100
AcDbEntity
8
INTERIOR_PROFILES
100
AcDbPolyline
90
8
70
1
43
0.0
10
1.8124999999999845
20
4.995568530833312
10
1.8125000000000027
20
4.901818530833312
10
2.5625000000000031
20
4.901818530833312
10
2.5625000000000129
20
4.995568530833312
10
2.4375000000000036
20
4.9955685308333129
10
2.4375000000000031
20
5.0893185308333129
10
1.9375000000000031
20
5.089318530833312
10
1.9375000000000031
20
4.995568530833312
0
CIRCLE
5
115
100
AcDbEntity
8
INTERIOR_PROFILES
100
AcDbCircle
10
-7.6177195242850777
20
2.9271630190222981
30
0
40
0.0625000000000005
210
0
220
0
230
-1
0
CIRCLE
5
116
100
AcDbEntity
8
INTERIOR_PROFILES
100
AcDbCircle
10
-5.7411417322834621
20
8.0863657749278097
30
0
40
0.10937499999999982
210
0
220
0
230
-1
0
CIRCLE
5
117
100
AcDbEntity
8
INTERIOR_PROFILES
100
AcDbCircle
10
-3.5
20
3.4330685308333231
30
0
40
0.062499999999999799
210
0
220
0
230
-1
0
CIRCLE
5
118
100
AcDbEntity
8
INTERIOR_PROFILES
100
AcDbCircle
10
-2.1875000000000098
20
4.683068530833312
30
0
40
0.062500000000000153
210
0
220
0
230
-1
0
CIRCLE
5
119
100
AcDbEntity
8
INTERIOR_PROFILES
100
AcDbCircle
10
-4.1224557589700659
20
8.0736935308333226
30
0
40
0.062499999999999799
210
0
220
0
230
-1
0
CIRCLE
5
120
100
AcDbEntity
8
INTERIOR_PROFILES
100
AcDbCircle
10
-9.4911417322834613
20
5.0863657749278097
30
0
40
0.10937499999999982
210
0
220
0
230
-1
0
CIRCLE
5
121
100
AcDbEntity
8
INTERIOR_PROFILES
100
AcDbCircle
10
-1.031250000000002
20
2.9643185308333235
30
0
40
0.093750000000000042
210
0
220
0
230
-1
0
LWPOLYLINE
5
122
100
AcDbEntity
8
INTERIOR_PROFILES
100
AcDbPolyline
90
4
70
1
43
0.0
10
4.3281249999999991
20
2.8021630190222986
10
4.3281249999999991
20
2.4896630190222986
10
5.1874999999999991
20
2.4896630190222986
10
5.1874999999999991
20
2.8021630190222986
0
LWPOLYLINE
5
123
100
AcDbEntity
8
INTERIOR_PROFILES
100
AcDbPolyline
90
8
70
1
43
0.0
10
9.2499999999999982
20
5.3334130190222986
10
9.2499999999999982
20
7.8393185308333209
42
0.41421356237309176
10
9.1249999999999982
20
7.9643185308333218
10
6.1072834645669287
20
7.9643185308333218
42
0.41421356237309509
10
5.9822834645669287
20
7.8393185308333226
10
5.9822834645669287
20
5.3334130190222986
42
0.41421356237309509
10
6.1072834645669287
20
5.2084130190222986
10
9.1249999999999964
20
5.2084130190222968
42
0.41421356237309509
0
LWPOLYLINE
5
124
100
AcDbEntity
8
INTERIOR_PROFILES
100
AcDbPolyline
90
6
70
1
43
0.0
10
1.5650000000000004
20
7.6830685308333218
10
0.31500000000000083
20
7.6830685308333218
10
0.31500000000000083
20
6.2455685308333218
10
1.1587500000000006
20
6.2455685308333226
10
1.1587500000000006
20
7.0268185308333218
10
1.5650000000000004
20
7.0268185308333218
0
LWPOLYLINE
5
125
100
AcDbEntity
8
INTERIOR_PROFILES
100
AcDbPolyline
90
4
70
1
43
0.0
10
6.0312499999999991
20
4.0834130190222977
10
6.0312499999999982
20
3.4896630190222981
10
6.7499999999999982
20
3.4896630190222981
10
6.7499999999999982
20
4.0834130190222977
0
LWPOLYLINE
5
126
100
AcDbEntity
8
INTERIOR_PROFILES
100
AcDbPolyline
90
4
70
1
43
0.0
10
4.3281249999999991
20
2.1146630190222986
10
4.3281249999999991
20
1.8021630190222981
10
5.1874999999999991
20
1.8021630190222984
10
5.1874999999999991
20
2.1146630190222986
0
CIRCLE
5
127
100
AcDbEntity
8
INTERIOR_PROFILES
100
AcDbCircle
10
-5.7411417322834613
20
5.0863657749278097
30
0
40
0.10937499999999982
210
0
220
0
230
-1
0
CIRCLE
5
128
100
AcDbEntity
8
INTERIOR_PROFILES
100
AcDbCircle
10
-9.491141732283463
20
8.0863657749278097
30
0
40
0.10937499999999982
210
0
220
0
230
-1
0
CIRCLE
5
129
100
AcDbEntity
8
INTERIOR_PROFILES
100
AcDbCircle
10
-2.2550884820598704
20
6.9955685308333218
30
0
40
0.062500000000000153
210
0
220
0
230
-1
0
CIRCLE
5
130
100
AcDbEntity
8
INTERIOR_PROFILES
100
AcDbCircle
10
-2.1874999999999902
20
2.183068530833312
30
0
40
0.062500000000000153
210
0
220
0
230
-1
0
LINE
5
131
100
AcDbEntity
8
BEND
100
AcDbLine
10
9.9999999999999964
20
8.6110027962499824
30
-1.3112870369588462e-16
11
0
21
8.6110027962499824
31
-3.0596697529039742e-16
0
LINE
5
132
100
AcDbEntity
8
BEND
100
AcDbLine
10
10.052934265416662
20
1.5580685308333218
30
-4.3709567898622235e-17
11
10.052934265416663
21
8.5580685308333226
31
-4.3709567898621495e-17
0
LINE
5
133
100
AcDbEntity
8
BEND
100
AcDbLine
10
4.8954716046463587e-15
20
1.5051342654166602
30
-1.3112870369588462e-16
11
10.000000000000002
21
1.5051342654166602
31
-3.0596697529039742e-16
0
LINE
5
134
100
AcDbEntity
8
BEND
100
AcDbLine
10
-0.052934265416660492
20
1.5580685308333215
30
-4.3709567898628219e-17
11
-0.052934265416660492
21
8.5580685308333209
31
-4.3709567898627991e-17
0
LINE
5
135
100
AcDbEntity
8
BEND
100
AcDbLine
10
11.515402796249978
20
1.558068530833322
30
-1.7156005400210949e-15
11
11.51540279624998
21
8.5580685308333226
31
-1.7156005400210959e-15
0
LINE
5
136
100
AcDbEntity
8
BEND
100
AcDbLine
10
-1.515402796249983
20
1.5580685308333213
30
-1.7156005400211439e-15
11
-1.515402796249983
21
8.5580685308333209
31
-1.7156005400211429e-15
0
LINE
5
137
100
AcDbEntity
8
BEND_EXTENT
100
AcDbLine
10
-1.5683370616666448
20
1.5580685308333209
30
-2.5486459427512156e-15
11
-1.5683370616666448
21
8.5580685308333209
31
-2.5486459427512156e-15
0
LINE
5
138
100
AcDbEntity
8
BEND_EXTENT
100
AcDbLine
10
11.568337061666643
20
8.5580685308333209
30
-1.4861253085534938e-15
11
11.568337061666643
21
1.558068530833322
31
-1.4861253085534938e-15
0
LINE
5
139
100
AcDbEntity
8
BEND_EXTENT
100
AcDbLine
10
6.9935308637805131e-16
20
8.6639370616666422
30
0
11
9.9999999999999929
21
8.6639370616666422
31
0
0
LWPOLYLINE
5
140
100
AcDbEntity
8
BEND_EXTENT
100
AcDbPolyline
90
4
70
1
43
0.0
10
6.9935308637805131e-16
20
8.5580685308333226
10
9.9999999999999982
20
8.5580685308333226
10
9.9999999999999982
20
1.5580685308333218
10
0
20
1.558068530833322
0
LINE
5
141
100
AcDbEntity
8
BEND_EXTENT
100
AcDbLine
10
9.9999999999999982
20
1.4521999999999997
30
0
11
5.5948246910244104e-15
21
1.4521999999999997
31
0
0
LINE
5
142
100
AcDbEntity
8
BEND_EXTENT
100
AcDbLine
10
-0.10586853083332169
20
1.5580685308333213
30
-6.9935308637805131e-16
11
-0.10586853083332169
21
8.5580685308333209
31
-6.9935308637805131e-16
0
LINE
5
143
100
AcDbEntity
8
BEND_EXTENT
100
AcDbLine
10
-1.4624685308333218
20
8.5580685308333226
30
-6.9935308637805131e-16
11
-1.4624685308333218
21
1.558068530833322
31
-6.9935308637805131e-16
0
LINE
5
144
100
AcDbEntity
8
BEND_EXTENT
100
AcDbLine
10
10.105868530833321
20
8.5580685308333209
30
-6.9935308637805131e-16
11
10.105868530833321
21
1.558068530833322
31
-6.9935308637805131e-16
0
LINE
5
145
100
AcDbEntity
8
BEND_EXTENT
100
AcDbLine
10
11.462468530833322
20
1.558068530833322
30
-6.9935308637805131e-16
11
11.462468530833322
21
8.5580685308333226
31
-6.9935308637805131e-16
0
ENDSEC
0
SECTION
2
OBJECTS
0
DICTIONARY
5
C
100
AcDbDictionary
3
ACAD_GROUP
350
D
3
ACAD_MLINESTYLE
350
17
0
DICTIONARY
5
D
100
AcDbDictionary
0
DICTIONARY
5
1A
330
C
100
AcDbDictionary
0
DICTIONARY
5
17
100
AcDbDictionary
0
ENDSEC
0
EOF
