0
SECTION
2
HEADER
9
$INSUNITS
70
1
9
$ACADVER
1
AC1014
9
$HANDSEED
5
FFFF
0
ENDSEC
0
SECTION
2
TABLES
0
TABLE
2
VPORT
5
8
100
AcDbSymbolTable
0
ENDTAB
0
TABLE
2
LTYPE
5
5
100
AcDbSymbolTable
0
LTYPE
5
14
100
AcDbSymbolTableRecord
100
AcDbLinetypeTableRecord
2
BYBLOCK
70
0
0
LTYPE
5
15
100
AcDbSymbolTableRecord
100
AcDbLinetypeTableRecord
2
BYLAYER
70
0
0
ENDTAB
0
TABLE
2
LAYER
5
2
100
AcDbSymbolTable
70
2
0
LAYER
5
50
100
AcDbSymbolTableRecord
100
AcDbLayerTableRecord
2
0
70
0
6
CONTINUOUS
0
ENDTAB
0
TABLE
2
STYLE
5
3
100
AcDbSymbolTable
70
1
0
STYLE
5
11
100
AcDbSymbolTableRecord
100
AcDbTextStyleTableRecord
2
STANDARD
70
0
0
ENDTAB
0
TABLE
2
VIEW
5
6
100
AcDbSymbolTable
70
0
0
ENDTAB
0
TABLE
2
UCS
5
7
100
AcDbSymbolTable
70
0
0
ENDTAB
0
TABLE
2
APPID
5
9
100
AcDbSymbolTable
70
2
0
APPID
5
12
100
AcDbSymbolTableRecord
100
AcDbRegAppTableRecord
2
ACAD
70
0
0
ENDTAB
0
TABLE
2
DIMSTYLE
5
A
100
AcDbSymbolTable
70
1
0
ENDTAB
0
TABLE
2
BLOCK_RECORD
5
1
100
AcDbSymbolTable
70
1
0
BLOCK_RECORD
5
1F
100
AcDbSymbolTableRecord
100
AcDbBlockTableRecord
2
*MODEL_SPACE
0
BLOCK_RECORD
5
1B
100
AcDbSymbolTableRecord
100
AcDbBlockTableRecord
2
*PAPER_SPACE
0
ENDTAB
0
ENDSEC
0
SECTION
2
BLOCKS
0
BLOCK
5
20
100
AcDbEntity
100
AcDbBlockBegin
2
*MODEL_SPACE
0
ENDBLK
5
21
100
AcDbEntity
100
AcDbBlockEnd
0
BLOCK
5
1C
100
AcDbEntity
100
AcDbBlockBegin
2
*PAPER_SPACE
0
ENDBLK
5
1D
100
AcDbEntity
100
AcDbBlockEnd
0
ENDSEC
0
SECTION
2
ENTITIES
0
LWPOLYLINE
5
100
100
AcDbEntity
8
OUTER_PROFILES
100
AcDbPolyline
90
16
70
1
43
0.0
10
9.9471999999999987
20
8.5693238825692042
10
12.118247765138403
20
8.5693238825692042
10
12.368247765138403
20
8.3193238825692024
10
12.368247765138403
20
1.8193238825692029
10
12.118247765138403
20
1.5693238825692051
10
9.9472000000000005
20
1.5693238825692051
10
9.9471999999999987
20
1.3987061727561026e-15
10
0
20
0
10
1.3987061727561026e-15
20
1.5693238825692024
10
-2.1710477651384021
20
1.5693238825692024
10
-2.4210477651384026
20
1.8193238825692029
10
-2.4210477651384026
20
8.3193238825692042
10
-2.1710477651384035
20
8.5693238825692042
10
0
20
8.5693238825692042
10
1.3987061727561026e-15
20
10.138647765138407
10
9.9471999999999987
20
10.138647765138407
0
CIRCLE
5
101
100
AcDbEntity
8
INTERIOR_PROFILES
100
AcDbCircle
10
-8.9159499999999987
20
7.1630738825692015
30
0
40
0.093750000000000042
210
0
220
0
230
-1
0
CIRCLE
5
102
100
AcDbEntity
8
INTERIOR_PROFILES
100
AcDbCircle
10
-0.50885826771653697
20
2.0410266384747158
30
0
40
0.10937499999999982
210
0
220
0
230
-1
0
LWPOLYLINE
5
103
100
AcDbEntity
8
INTERIOR_PROFILES
100
AcDbPolyline
90
4
70
1
43
0.0
10
5.6718750000000009
20
8.3252293943802247
10
4.8125000000000009
20
8.3252293943802265
10
4.8125000000000009
20
8.0127293943802265
10
5.6718750000000009
20
8.0127293943802265
0
LWPOLYLINE
5
104
100
AcDbEntity
8
INTERIOR_PROFILES
100
AcDbPolyline
90
4
70
1
43
0.0
10
4.8125000000000009
20
6.6377293943802256
10
4.8125000000000009
20
5.6846043943802274
10
5.6718750000000009
20
5.6846043943802274
10
5.6718750000000009
20
6.6377293943802256
0
CIRCLE
5
105
100
AcDbEntity
8
INTERIOR_PROFILES
100
AcDbCircle
10
-7.6921115179401314
20
3.1318238825692037
30
0
40
0.068000000000000685
210
0
220
0
230
-1
0
LWPOLYLINE
5
106
100
AcDbEntity
8
INTERIOR_PROFILES
100
AcDbPolyline
90
8
70
1
43
0.0
10
7.5097000000000023
20
8.3505738825692255
10
7.5097000000000023
20
8.2568238825692255
10
7.3847000000003149
20
8.25682388256919
10
7.3847000000003051
20
8.16307388256919
10
8.134700000000306
20
8.1630738825692379
10
8.1347000000002971
20
8.2568238825692255
10
8.0097000000000023
20
8.2568238825692255
10
8.0097000000000023
20
8.3505738825692255
0
LWPOLYLINE
5
107
100
AcDbEntity
8
INTERIOR_PROFILES
100
AcDbPolyline
90
8
70
1
43
0.0
10
0.75
20
4.7939793943802274
42
-0.4142135623730942
10
0.87500000000000033
20
4.9189793943802274
10
3.8927165354330717
20
4.9189793943802274
42
-0.41421356237309337
10
4.0177165354330722
20
4.7939793943802274
10
4.0177165354330713
20
2.2880738825692037
42
-0.41421356237309587
10
3.8927165354330717
20
2.1630738825692029
10
0.875000000000001
20
2.1630738825692037
42
-0.41421356237309509
10
0.75000000000000033
20
2.2880738825692051
0
LWPOLYLINE
5
108
100
AcDbEntity
8
INTERIOR_PROFILES
100
AcDbPolyline
90
4
70
1
43
0.0
10
3.2500000000000009
20
6.6377293943802256
10
3.2500000000000013
20
6.0439793943802265
10
3.9687500000000018
20
6.0439793943802265
10
3.9687500000000009
20
6.6377293943802256
0
LWPOLYLINE
5
109
100
AcDbEntity
8
INTERIOR_PROFILES
100
AcDbPolyline
90
4
70
1
43
0.0
10
5.6718750000000009
20
7.3252293943802274
10
5.6718750000000009
20
7.6377293943802274
10
4.8125000000000009
20
7.6377293943802274
10
4.8125000000000009
20
7.3252293943802274
0
LWPOLYLINE
5
110
100
AcDbEntity
8
INTERIOR_PROFILES
100
AcDbPolyline
90
4
70
1
43
0.0
10
-0.32107388256920094
20
7.8193238825692042
10
-0.32107388256920094
20
8.1943238825692042
10
-1.2585738825692014
20
8.1943238825692042
10
-1.2585738825692014
20
7.8193238825692042
0
LWPOLYLINE
5
111
100
AcDbEntity
8
INTERIOR_PROFILES
100
AcDbPolyline
90
8
70
1
43
0.0
10
8.1346999999999987
20
5.225573882569214
10
7.3846999999999987
20
5.225573882569214
10
7.3846999999999889
20
5.131823882569214
10
7.5096999999999978
20
5.1318238825692122
10
7.5096999999999996
20
5.0380738825692122
10
8.0096999999999987
20
5.0380738825692131
10
8.0096999999999987
20
5.1318238825692131
10
8.1347000000000165
20
5.131823882569214
0
CIRCLE
5
112
100
AcDbEntity
8
INTERIOR_PROFILES
100
AcDbCircle
10
-6.4472000000000005
20
3.1318238825692037
30
0
40
1.0625
210
0
220
0
230
-1
0
CIRCLE
5
113
100
AcDbEntity
8
INTERIOR_PROFILES
100
AcDbCircle
10
-0.5088582677165383
20
6.1972766384747162
30
0
40
0.058000000000000218
210
0
220
0
230
-1
0
CIRCLE
5
114
100
AcDbEntity
8
INTERIOR_PROFILES
100
AcDbCircle
10
-5.8247442410299346
20
2.0536988825692029
30
0
40
0.067999999999999991
210
0
220
0
230
-1
0
CIRCLE
5
115
100
AcDbEntity
8
INTERIOR_PROFILES
100
AcDbCircle
10
1.9210477651384028
20
2.8193238825692055
30
0
40
0.10937499999999982
210
0
220
0
230
-1
0
CIRCLE
5
116
100
AcDbEntity
8
INTERIOR_PROFILES
100
AcDbCircle
10
-4.258858267716537
20
2.0410266384747153
30
0
40
0.10937499999999982
210
0
220
0
230
-1
0
LWPOLYLINE
5
117
100
AcDbEntity
8
INTERIOR_PROFILES
100
AcDbPolyline
90
6
70
1
43
0.0
10
8.8284500000000001
20
3.881823882569202
10
8.8284500000000001
20
3.1005738825692033
10
8.4222000000000001
20
3.1005738825692033
10
8.4222000000000001
20
2.4443238825692037
10
9.6722000000000001
20
2.4443238825692037
10
9.6722000000000001
20
3.8818238825692024
0
LWPOLYLINE
5
118
100
AcDbEntity
8
INTERIOR_PROFILES
100
AcDbPolyline
90
2
70
1
43
0.0
10
3.4140960983519175
20
7.6066327878472269
10
3.6153209203882519
20
7.5128001123208081
42
4.2697504881162649
0
CIRCLE
5
119
100
AcDbEntity
8
INTERIOR_PROFILES
100
AcDbCircle
10
-7.7597000000000103
20
7.944323882569214
30
0
40
0.058000000000000218
210
0
220
0
230
-1
0
CIRCLE
5
120
100
AcDbEntity
8
INTERIOR_PROFILES
100
AcDbCircle
10
-7.7597000000000014
20
6.694323882569214
30
0
40
0.058000000000000218
210
0
220
0
230
-1
0
CIRCLE
5
121
100
AcDbEntity
8
INTERIOR_PROFILES
100
AcDbCircle
10
-11.868247765138404
20
2.8193238825692037
30
0
40
0.10937499999999982
210
0
220
0
230
-1
0
CIRCLE
5
122
100
AcDbEntity
8
INTERIOR_PROFILES
100
AcDbCircle
10
-7.7596999999999898
20
5.444323882569214
30
0
40
0.058000000000000218
210
0
220
0
230
-1
0
CIRCLE
5
123
100
AcDbEntity
8
INTERIOR_PROFILES
100
AcDbCircle
10
-2.3822804757149223
20
7.2002293943802265
30
0
40
0.057999999999999864
210
0
220
0
230
-1
0
CIRCLE
5
124
100
AcDbEntity
8
INTERIOR_PROFILES
100
AcDbCircle
10
-6.4472000000000005
20
6.6943238825692024
30
0
40
0.058000000000000218
210
0
220
0
230
-1
0
CIRCLE
5
125
100
AcDbEntity
8
INTERIOR_PROFILES
100
AcDbCircle
10
-4.2588582677165379
20
5.0410266384747153
30
0
40
0.10937499999999982
210
0
220
0
230
-1
0
CIRCLE
5
126
100
AcDbEntity
8
INTERIOR_PROFILES
100
AcDbCircle
10
-0.5088582677165383
20
5.0410266384747162
30
0
40
0.10937499999999982
210
0
220
0
230
-1
0
CIRCLE
5
127
100
AcDbEntity
8
INTERIOR_PROFILES
100
AcDbCircle
10
-11.868247765138404
20
7.3193238825692033
30
0
40
0.10937499999999982
210
0
220
0
230
-1
0
CIRCLE
5
128
100
AcDbEntity
8
INTERIOR_PROFILES
100
AcDbCircle
10
1.9210477651384028
20
7.3193238825692051
30
0
40
0.10937499999999982
210
0
220
0
230
-1
0
CIRCLE
5
129
100
AcDbEntity
8
INTERIOR_PROFILES
100
AcDbCircle
10
-9.3571999999999989
20
4.6474488825692024
30
0
40
0.39062499999999994
210
0
220
0
230
-1
0
CIRCLE
5
130
100
AcDbEntity
8
INTERIOR_PROFILES
100
AcDbCircle
10
-5.8247442410299346
20
4.2099488825692024
30
0
40
0.067999999999999991
210
0
220
0
230
-1
0
LINE
5
131
100
AcDbEntity
8
BEND
100
AcDbLine
10
-2.7974123455122052e-15
20
1.5031619412846025
30
3.2782175923971155e-15
11
9.9472000000000005
21
1.5031619412846038
31
3.4530558639916284e-15
0
LINE
5
132
100
AcDbEntity
8
BEND
100
AcDbLine
10
-1.5134858238538011
20
8.5693238825692042
30
-1.3462546912777477e-14
11
-1.5134858238538011
21
1.5693238825692037
31
-1.3462546912777482e-14
0
LINE
5
133
100
AcDbEntity
8
BEND
100
AcDbLine
10
11.460685823853803
20
8.5693238825692042
30
-1.4150972607180897e-14
11
11.460685823853803
21
1.5693238825692037
31
-1.4150972607180892e-14
0
LINE
5
134
100
AcDbEntity
8
BEND
100
AcDbLine
10
10.013361941284602
20
8.5693238825692042
30
3.1252341047519073e-15
11
10.013361941284602
21
1.5693238825692037
31
3.1252341047519085e-15
0
LINE
5
135
100
AcDbEntity
8
BEND
100
AcDbLine
10
9.947200000000004
20
8.6354858238538039
30
3.2782175923971155e-15
11
0
21
8.6354858238538039
31
3.4530558639916284e-15
0
LINE
5
136
100
AcDbEntity
8
BEND
100
AcDbLine
10
-0.06616194128460276
20
8.5693238825692042
30
3.1252341047518983e-15
11
-0.06616194128460276
21
1.5693238825692037
31
3.1252341047518931e-15
0
LINE
5
137
100
AcDbEntity
8
BEND_EXTENT
100
AcDbLine
10
11.526847765138402
20
8.5693238825692042
30
-1.4694853533382478e-14
11
11.526847765138402
21
1.5693238825692037
31
-1.4694853533382478e-14
0
LINE
5
138
100
AcDbEntity
8
BEND_EXTENT
100
AcDbLine
10
-1.5796477651384011
20
1.5693238825692037
30
-1.4733099405293779e-14
11
-1.5796477651384038
21
8.5693238825692042
31
-1.4733099405293779e-14
0
LINE
5
139
100
AcDbEntity
8
BEND_EXTENT
100
AcDbLine
10
9.9471999999999987
20
1.4370000000000025
30
3.4967654318902565e-15
11
-2.7974123455122052e-15
21
1.4370000000000009
31
3.4967654318902565e-15
0
LWPOLYLINE
5
140
100
AcDbEntity
8
BEND_EXTENT
100
AcDbPolyline
90
4
70
1
43
0.0
10
9.9472000000000005
20
1.5693238825692051
10
1.3987061727561026e-15
20
1.5693238825692024
10
0
20
8.5693238825692042
10
9.9471999999999987
20
8.5693238825692042
0
LINE
5
141
100
AcDbEntity
8
BEND_EXTENT
100
AcDbLine
10
0
20
8.7016477651384054
30
2.7974123455122052e-15
11
9.947200000000004
21
8.7016477651384054
31
2.7974123455122052e-15
0
LINE
5
142
100
AcDbEntity
8
BEND_EXTENT
100
AcDbLine
10
10.0795238825692
20
8.5693238825692042
30
2.0980592591341539e-15
11
10.079523882569202
21
1.5693238825692037
31
2.0980592591341539e-15
0
LINE
5
143
100
AcDbEntity
8
BEND_EXTENT
100
AcDbLine
10
11.394523882569201
20
1.5693238825692051
30
-1.3287708641182974e-14
11
11.394523882569201
21
8.5693238825692042
31
-1.3287708641182974e-14
0
LINE
5
144
100
AcDbEntity
8
BEND_EXTENT
100
AcDbLine
10
-0.13232388256919994
20
1.5693238825692037
30
2.0980592591341539e-15
11
-0.13232388256920133
21
8.5693238825692042
31
2.0980592591341539e-15
0
LINE
5
145
100
AcDbEntity
8
BEND_EXTENT
100
AcDbLine
10
-1.447323882569201
20
8.5693238825692042
30
-1.3287708641182974e-14
11
-1.4473238825691996
21
1.5693238825692024
31
-1.3287708641182974e-14
0
ENDSEC
0
SECTION
2
OBJECTS
0
DICTIONARY
5
C
100
AcDbDictionary
3
ACAD_GROUP
350
D
3
ACAD_MLINESTYLE
350
17
0
DICTIONARY
5
D
100
AcDbDictionary
0
DICTIONARY
5
1A
330
C
100
AcDbDictionary
0
DICTIONARY
5
17
100
AcDbDictionary
0
ENDSEC
0
EOF
