0
SECTION
2
HEADER
9
$INSUNITS
70
4
9
$ACADVER
1
AC1014
9
$HANDSEED
5
FFFF
0
ENDSEC
0
SECTION
2
TABLES
0
TABLE
2
VPORT
5
8
100
AcDbSymbolTable
0
ENDTAB
0
TABLE
2
LTYPE
5
5
100
AcDbSymbolTable
0
LTYPE
5
14
100
AcDbSymbolTableRecord
100
AcDbLinetypeTableRecord
2
BYBLOCK
70
0
0
LTYPE
5
15
100
AcDbSymbolTableRecord
100
AcDbLinetypeTableRecord
2
BYLAYER
70
0
0
ENDTAB
0
TABLE
2
LAYER
5
2
100
AcDbSymbolTable
70
2
0
LAYER
5
50
100
AcDbSymbolTableRecord
100
AcDbLayerTableRecord
2
0
70
0
6
CONTINUOUS
0
ENDTAB
0
TABLE
2
STYLE
5
3
100
AcDbSymbolTable
70
1
0
STYLE
5
11
100
AcDbSymbolTableRecord
100
AcDbTextStyleTableRecord
2
STANDARD
70
0
0
ENDTAB
0
TABLE
2
VIEW
5
6
100
AcDbSymbolTable
70
0
0
ENDTAB
0
TABLE
2
UCS
5
7
100
AcDbSymbolTable
70
0
0
ENDTAB
0
TABLE
2
APPID
5
9
100
AcDbSymbolTable
70
2
0
APPID
5
12
100
AcDbSymbolTableRecord
100
AcDbRegAppTableRecord
2
ACAD
70
0
0
ENDTAB
0
TABLE
2
DIMSTYLE
5
A
100
AcDbSymbolTable
70
1
0
ENDTAB
0
TABLE
2
BLOCK_RECORD
5
1
100
AcDbSymbolTable
70
1
0
BLOCK_RECORD
5
1F
100
AcDbSymbolTableRecord
100
AcDbBlockTableRecord
2
*MODEL_SPACE
0
BLOCK_RECORD
5
1B
100
AcDbSymbolTableRecord
100
AcDbBlockTableRecord
2
*PAPER_SPACE
0
ENDTAB
0
ENDSEC
0
SECTION
2
BLOCKS
0
BLOCK
5
20
100
AcDbEntity
100
AcDbBlockBegin
2
*MODEL_SPACE
0
ENDBLK
5
21
100
AcDbEntity
100
AcDbBlockEnd
0
BLOCK
5
1C
100
AcDbEntity
100
AcDbBlockBegin
2
*PAPER_SPACE
0
ENDBLK
5
1D
100
AcDbEntity
100
AcDbBlockEnd
0
ENDSEC
0
SECTION
2
ENTITIES
0
CIRCLE
5
100
100
AcDbEntity
8
OUTER_PROFILES
100
AcDbCircle
10
-13.817600000000002
20
1.1102230246251565e-15
30
0
40
18.653124999999999
210
0
220
-0
230
1
0
LWPOLYLINE
5
101
100
AcDbEntity
8
INTERIOR_PROFILES
100
AcDbPolyline
90
4
70
1
43
0.0
10
3.3565611914196314
20
-4.6018026219228139
10
-0.47082330266817574
20
-3.5762580376085995
42
-0.032736610412972433
10
-1.0518021715720494
20
-5.2877665950478665
10
2.6089780880506677
20
-6.8041114274513124
42
0.032736610412972877
0
LWPOLYLINE
5
102
100
AcDbEntity
8
INTERIOR_PROFILES
100
AcDbPolyline
90
4
70
1
43
0.0
10
-0.11821148348123867
20
-1.8035587136197813
10
3.8102896352263449
20
-2.3207556976725221
42
0.032736610412972655
10
3.962399999999997
20
2.2204460492503131e-15
10
-8.6736173798840355e-16
20
-1.4988010832439613e-14
42
-0.032736610412972211
0
LWPOLYLINE
5
103
100
AcDbEntity
8
INTERIOR_PROFILES
100
AcDbPolyline
90
4
70
1
43
0.0
10
-0.11821148348124311
20
1.8035587136197895
10
3.8102896352263476
20
2.3207556976725008
42
0.032736610412972877
10
3.3565611914196292
20
4.6018026219228254
10
-0.47082330266817601
20
3.5762580376086008
42
-0.032736610412972655
0
LWPOLYLINE
5
104
100
AcDbEntity
8
INTERIOR_PROFILES
100
AcDbPolyline
90
4
70
1
43
0.0
10
-1.0518021715720449
20
5.2877665950478665
10
2.6089780880506752
20
6.804111427451299
42
0.032736610412972433
10
1.580331679287319
20
8.8899999999999952
10
-1.8512073806681446
20
6.9088000000000074
42
-0.032736610412972655
0
LWPOLYLINE
5
105
100
AcDbEntity
8
INTERIOR_PROFILES
100
AcDbPolyline
90
4
70
1
43
0.0
10
-2.8553608851918311
20
8.4116219214708945
10
0.28822239037817304
20
10.823778207775041
42
0.032736610412973106
10
-1.2452414305032011
20
12.572358569496828
10
-4.0470813402767591
20
9.7705186597232299
42
-0.032736610412972433
0
LWPOLYLINE
5
106
100
AcDbEntity
8
INTERIOR_PROFILES
100
AcDbPolyline
90
4
70
1
43
0.0
10
-5.4059780785291078
20
10.962239114808177
10
-2.9938217922249422
20
14.105822390378155
42
0.032736610412972877
10
-4.9276000000000142
20
15.397931679287327
10
-6.9088000000000012
20
11.966392619331859
42
-0.032736610412972433
0
LWPOLYLINE
5
107
100
AcDbEntity
8
INTERIOR_PROFILES
100
AcDbPolyline
90
4
70
1
43
0.0
10
-8.5298334049521358
20
12.765797828427958
10
-7.0134885725486749
20
16.426578088050668
42
0.032736610412972877
10
-9.2157973780771734
20
17.174161191419635
10
-10.241341962391404
20
13.346776697331835
42
-0.032736610412972433
0
LWPOLYLINE
5
108
100
AcDbEntity
8
INTERIOR_PROFILES
100
AcDbPolyline
90
4
70
1
43
0.0
10
-12.014041286380213
20
13.699388516518765
10
-11.496844302327467
20
17.627889635226346
42
0.032736610412972877
10
-13.817600000000008
20
17.780000000000001
10
-13.817600000000002
20
13.817600000000006
42
-0.032736610412972655
0
LWPOLYLINE
5
109
100
AcDbEntity
8
INTERIOR_PROFILES
100
AcDbPolyline
90
4
70
1
43
0.0
10
-15.621158713619788
20
13.699388516518765
10
-16.138355697672498
20
17.627889635226353
42
0.032736610412972877
10
-18.419402621922821
20
17.174161191419635
10
-17.393858037608588
20
13.346776697331833
42
-0.032736610412972433
0
LWPOLYLINE
5
110
100
AcDbEntity
8
INTERIOR_PROFILES
100
AcDbPolyline
90
4
70
1
43
0.0
10
-19.105366595047862
20
12.765797828427958
10
-20.621711427451295
20
16.426578088050682
42
0.032736610412972433
10
-22.707599999999992
20
15.397931679287327
10
-20.726400000000005
20
11.966392619331859
42
-0.032736610412972655
0
LWPOLYLINE
5
111
100
AcDbEntity
8
INTERIOR_PROFILES
100
AcDbPolyline
90
4
70
1
43
0.0
10
-22.229221921470895
20
10.962239114808172
10
-24.641378207775048
20
14.105822390378171
42
0.032736610412972877
10
-26.389958569496827
20
12.57235856949681
10
-23.588118659723243
20
9.7705186597232423
42
-0.032736610412972655
0
LWPOLYLINE
5
112
100
AcDbEntity
8
INTERIOR_PROFILES
100
AcDbPolyline
90
4
70
1
43
0.0
10
-24.77983911480818
20
8.4116219214708945
10
-27.923422390378164
20
10.823778207775065
42
0.032736610412972877
10
-29.215531679287334
20
8.8899999999999935
10
-25.783992619331869
20
6.9088000000000012
42
-0.032736610412972433
0
LWPOLYLINE
5
113
100
AcDbEntity
8
INTERIOR_PROFILES
100
AcDbPolyline
90
4
70
1
43
0.0
10
-26.583397828427962
20
5.2877665950478612
10
-30.244178088050681
20
6.8041114274512964
42
0.032736610412972655
10
-30.991761191419638
20
4.6018026219228112
10
-27.164376697331836
20
3.5762580376085937
42
-0.032736610412972433
0
LWPOLYLINE
5
114
100
AcDbEntity
8
INTERIOR_PROFILES
100
AcDbPolyline
90
4
70
1
43
0.0
10
-27.516988516518765
20
1.8035587136197813
10
-31.445489635226352
20
2.3207556976725057
42
0.032736610412972433
10
-31.597600000000003
20
-3.3306690738754696e-15
10
-27.635199999999998
20
1.5265566588595902e-14
42
-0.032736610412972211
0
LWPOLYLINE
5
115
100
AcDbEntity
8
INTERIOR_PROFILES
100
AcDbPolyline
90
4
70
1
43
0.0
10
-27.516988516518765
20
-1.8035587136197895
10
-31.445489635226348
20
-2.3207556976725079
42
0.032736610412972877
10
-30.991761191419634
20
-4.6018026219228325
10
-27.164376697331832
20
-3.5762580376086013
42
-0.032736610412972655
0
LWPOLYLINE
5
116
100
AcDbEntity
8
INTERIOR_PROFILES
100
AcDbPolyline
90
4
70
1
43
0.0
10
-26.583397828427955
20
-5.2877665950478683
10
-30.244178088050688
20
-6.8041114274512804
42
0.032736610412972877
10
-29.215531679287317
20
-8.8900000000000041
10
-25.783992619331862
20
-6.9087999999999976
42
-0.032736610412972433
0
LWPOLYLINE
5
117
100
AcDbEntity
8
INTERIOR_PROFILES
100
AcDbPolyline
90
4
70
1
43
0.0
10
-24.779839114808169
20
-8.4116219214709016
10
-27.923422390378171
20
-10.823778207775035
42
0.032736610412972877
10
-26.389958569496812
20
-12.572358569496815
10
-23.588118659723222
20
-9.7705186597232654
42
-0.032736610412973106
0
LWPOLYLINE
5
118
100
AcDbEntity
8
INTERIOR_PROFILES
100
AcDbPolyline
90
4
70
1
43
0.0
10
-22.229221921470899
20
-10.962239114808172
10
-24.641378207775038
20
-14.105822390378171
42
0.032736610412972433
10
-22.707599999999992
20
-15.397931679287327
10
-20.726399999999998
20
-11.966392619331858
42
-0.032736610412972655
0
LWPOLYLINE
5
119
100
AcDbEntity
8
INTERIOR_PROFILES
100
AcDbPolyline
90
4
70
1
43
0.0
10
-19.105366595047869
20
-12.765797828427953
10
-20.621711427451316
20
-16.426578088050675
42
0.032736610412972877
10
-18.419402621922814
20
-17.174161191419635
10
-17.393858037608602
20
-13.346776697331826
42
-0.032736610412972433
0
LWPOLYLINE
5
120
100
AcDbEntity
8
INTERIOR_PROFILES
100
AcDbPolyline
90
4
70
1
43
0.0
10
-15.621158713619785
20
-13.699388516518765
10
-16.138355697672509
20
-17.627889635226349
42
0.032736610412972433
10
-13.817599999999999
20
-17.780000000000001
10
-13.817600000000006
20
-13.817600000000001
42
-0.032736610412972433
0
LWPOLYLINE
5
121
100
AcDbEntity
8
INTERIOR_PROFILES
100
AcDbPolyline
90
4
70
1
43
0.0
10
-12.014041286380216
20
-13.699388516518765
10
-11.496844302327503
20
-17.627889635226349
42
0.032736610412972877
10
-9.2157973780771769
20
-17.174161191419635
10
-10.241341962391406
20
-13.346776697331828
42
-0.032736610412972655
0
LWPOLYLINE
5
122
100
AcDbEntity
8
INTERIOR_PROFILES
100
AcDbPolyline
90
4
70
1
43
0.0
10
-8.5298334049521323
20
-12.765797828427953
10
-7.0134885725486917
20
-16.426578088050672
42
0.032736610412972433
10
-4.9275999999999973
20
-15.397931679287314
10
-6.9088000000000012
20
-11.966392619331863
42
-0.032736610412972433
0
LWPOLYLINE
5
123
100
AcDbEntity
8
INTERIOR_PROFILES
100
AcDbPolyline
90
4
70
1
43
0.0
10
-5.4059780785291034
20
-10.962239114808172
10
-2.9938217922249519
20
-14.105822390378162
42
0.032736610412972877
10
-1.2452414305031745
20
-12.572358569496803
10
-4.0470813402767556
20
-9.770518659723237
42
-0.032736610412972655
0
LWPOLYLINE
5
124
100
AcDbEntity
8
INTERIOR_PROFILES
100
AcDbPolyline
90
4
70
1
43
0.0
10
-2.8553608851918311
20
-8.4116219214708963
10
0.28822239037816733
20
-10.823778207775042
42
0.032736610412972433
10
1.580331679287319
20
-8.8899999999999952
10
-1.8512073806681473
20
-6.9088000000000029
42
-0.032736610412972433
0
CIRCLE
5
125
100
AcDbEntity
8
INTERIOR_PROFILES
100
AcDbCircle
10
13.817600000000002
20
1.1102230246251565e-15
30
0
40
1.4605000000000015
210
0
220
0
230
-1
0
ENDSEC
0
SECTION
2
OBJECTS
0
DICTIONARY
5
C
100
AcDbDictionary
3
ACAD_GROUP
350
D
3
ACAD_MLINESTYLE
350
17
0
DICTIONARY
5
D
100
AcDbDictionary
0
DICTIONARY
5
1A
330
C
100
AcDbDictionary
0
DICTIONARY
5
17
100
AcDbDictionary
0
ENDSEC
0
EOF
