0
SECTION
2
HEADER
9
$INSUNITS
70
4
9
$ACADVER
1
AC1014
9
$HANDSEED
5
FFFF
0
ENDSEC
0
SECTION
2
TABLES
0
TABLE
2
VPORT
5
8
100
AcDbSymbolTable
0
ENDTAB
0
TABLE
2
LTYPE
5
5
100
AcDbSymbolTable
0
LTYPE
5
14
100
AcDbSymbolTableRecord
100
AcDbLinetypeTableRecord
2
BYBLOCK
70
0
0
LTYPE
5
15
100
AcDbSymbolTableRecord
100
AcDbLinetypeTableRecord
2
BYLAYER
70
0
0
ENDTAB
0
TABLE
2
LAYER
5
2
100
AcDbSymbolTable
70
2
0
LAYER
5
50
100
AcDbSymbolTableRecord
100
AcDbLayerTableRecord
2
0
70
0
6
CONTINUOUS
0
ENDTAB
0
TABLE
2
STYLE
5
3
100
AcDbSymbolTable
70
1
0
STYLE
5
11
100
AcDbSymbolTableRecord
100
AcDbTextStyleTableRecord
2
STANDARD
70
0
0
ENDTAB
0
TABLE
2
VIEW
5
6
100
AcDbSymbolTable
70
0
0
ENDTAB
0
TABLE
2
UCS
5
7
100
AcDbSymbolTable
70
0
0
ENDTAB
0
TABLE
2
APPID
5
9
100
AcDbSymbolTable
70
2
0
APPID
5
12
100
AcDbSymbolTableRecord
100
AcDbRegAppTableRecord
2
ACAD
70
0
0
ENDTAB
0
TABLE
2
DIMSTYLE
5
A
100
AcDbSymbolTable
70
1
0
ENDTAB
0
TABLE
2
BLOCK_RECORD
5
1
100
AcDbSymbolTable
70
1
0
BLOCK_RECORD
5
1F
100
AcDbSymbolTableRecord
100
AcDbBlockTableRecord
2
*MODEL_SPACE
0
BLOCK_RECORD
5
1B
100
AcDbSymbolTableRecord
100
AcDbBlockTableRecord
2
*PAPER_SPACE
0
ENDTAB
0
ENDSEC
0
SECTION
2
BLOCKS
0
BLOCK
5
20
100
AcDbEntity
100
AcDbBlockBegin
2
*MODEL_SPACE
0
ENDBLK
5
21
100
AcDbEntity
100
AcDbBlockEnd
0
BLOCK
5
1C
100
AcDbEntity
100
AcDbBlockBegin
2
*PAPER_SPACE
0
ENDBLK
5
1D
100
AcDbEntity
100
AcDbBlockEnd
0
ENDSEC
0
SECTION
2
ENTITIES
0
LWPOLYLINE
5
100
100
AcDbEntity
8
OUTER_PROFILES
100
AcDbPolyline
90
40
70
1
43
0.0
10
123.82499999953849
20
49.749999999903096
10
99.694999999538467
20
49.749999999903096
42
-0.41421356237309509
10
98.424999999538471
20
51.019999999903085
10
98.424999999538471
20
73.025000000000006
10
79.37499999953846
20
73.025000000000006
10
79.374999999538488
20
51.019999999901998
42
-0.41421356237309509
10
78.104999999538506
20
49.749999999902023
10
77.470000000000013
20
49.749999999902016
42
-0.41421356237309509
10
76.200000000000031
20
51.019999999901998
10
76.200000000000017
20
63.5
10
0
20
63.5
10
-4.4408920985006262e-15
20
51.01999999970996
42
-0.41421356237309515
10
-1.2699999999999847
20
49.749999999709978
10
-1.9050000005432599
20
49.749999999709971
42
-0.41421356237309509
10
-3.1750000005432488
20
51.01999999970996
10
-3.1750000005432577
20
73.024999994273699
10
-22.22500000054325
20
73.024999994273699
10
-22.224999999343172
20
51.020000000166121
42
-0.41421356238906809
10
-23.494999999343161
20
49.75000000009689
10
-47.625000000461512
20
49.750000000096904
10
-47.625000000461512
20
13.749999999903086
10
-23.495000000543232
20
13.749999999903075
42
-0.41421356237309509
10
-22.22500000054325
20
12.479999999903095
10
-22.22500000054325
20
-9.5250000057263122
10
-3.1750000005432399
20
-9.525000005726314
10
-3.1750000005432533
20
12.47999999990309
42
-0.41421356237310225
10
-1.9050000005432508
20
13.749999999903086
10
-1.2700000000000025
20
13.749999999903089
42
-0.41421356237309304
10
0
20
12.479999999903077
10
0
20
0
10
76.200000000000017
20
0
10
76.199999999999989
20
12.479999999903075
42
-0.41421356237309603
10
77.469999999999999
20
13.749999999903082
10
78.104999999538478
20
13.749999999903084
42
-0.41421356237310325
10
79.374999999538488
20
12.479999999903104
10
79.37499999953846
20
-9.5250000000000838
10
98.424999999538471
20
-9.5250000000000767
10
98.4249999995385
20
12.480000000096902
42
-0.41421356237309198
10
99.694999999538467
20
13.750000000096897
10
123.82499999953849
20
13.750000000096893
0
CIRCLE
5
101
100
AcDbEntity
8
INTERIOR_PROFILES
100
AcDbCircle
10
-90.599999999999952
20
63.500000000000085
30
0
40
3.1749999999999901
210
0
220
0
230
-1
0
CIRCLE
5
102
100
AcDbEntity
8
INTERIOR_PROFILES
100
AcDbCircle
10
-114.3
20
31.750000004155602
30
0
40
2.3812500000000014
210
0
220
0
230
-1
0
CIRCLE
5
103
100
AcDbEntity
8
INTERIOR_PROFILES
100
AcDbCircle
10
38.100000000000001
20
31.749999995844394
30
0
40
2.3812500000000014
210
0
220
0
230
-1
0
CIRCLE
5
104
100
AcDbEntity
8
INTERIOR_PROFILES
100
AcDbCircle
10
-90.600000000000023
20
-9.1038288019262836e-14
30
0
40
3.1749999999999901
210
0
220
0
230
-1
0
CIRCLE
5
105
100
AcDbEntity
8
INTERIOR_PROFILES
100
AcDbCircle
10
14.399999999999981
20
-5.7263171981958294e-09
30
0
40
3.1749999999999989
210
0
220
0
230
-1
0
CIRCLE
5
106
100
AcDbEntity
8
INTERIOR_PROFILES
100
AcDbCircle
10
14.399999999999981
20
63.500000000000085
30
0
40
3.1749999999999989
210
0
220
0
230
-1
0
LINE
5
107
100
AcDbEntity
8
BEND
100
AcDbLine
10
-3.1750000005432488
20
10.869530335856892
30
1.3877787807814457e-15
11
-22.22500000054325
21
10.869530335856892
31
0
0
LINE
5
108
100
AcDbEntity
8
BEND
100
AcDbLine
10
-22.224999999504341
20
52.630469652690493
30
1.3877787807814457e-15
11
-3.1750000005432488
21
52.630469652690493
31
0
0
LINE
5
109
100
AcDbEntity
8
BEND
100
AcDbLine
10
79.37499999953846
20
52.630469658416814
30
1.3877787807814457e-15
11
98.424999999538471
21
52.630469658416814
31
0
0
LINE
5
110
100
AcDbEntity
8
BEND
100
AcDbLine
10
98.424999999538457
20
10.869530341583104
30
3.6082248300317588e-15
11
79.37499999953846
21
10.869530341583122
31
0
0
LINE
5
111
100
AcDbEntity
8
BEND_EXTENT
100
AcDbLine
10
-3.1750000005432488
20
9.5249999942736885
30
0
11
-22.22500000054325
21
9.5249999942736885
31
0
0
LINE
5
112
100
AcDbEntity
8
BEND_EXTENT
100
AcDbLine
10
-3.1750000005432488
20
12.214060677440077
30
0
11
-22.22500000054325
21
12.214060677440077
31
0
0
LINE
5
113
100
AcDbEntity
8
BEND_EXTENT
100
AcDbLine
10
-22.224999999504341
20
53.974999994273688
30
0
11
-3.1750000005432488
21
53.974999994273688
31
0
0
LINE
5
114
100
AcDbEntity
8
BEND_EXTENT
100
AcDbLine
10
-22.224999999357692
20
51.285939311107299
30
0
11
-3.1750000005432488
21
51.285939311107299
31
0
0
LINE
5
115
100
AcDbEntity
8
BEND_EXTENT
100
AcDbLine
10
98.424999999538471
20
9.524999999999908
30
4.4408920985006262e-15
11
79.37499999953846
21
9.5249999999999257
31
4.4408920985006262e-15
0
LINE
5
116
100
AcDbEntity
8
BEND_EXTENT
100
AcDbLine
10
98.424999999538471
20
12.214060683166291
30
0
11
79.374999999538488
21
12.214060683166315
31
0
0
LINE
5
117
100
AcDbEntity
8
BEND_EXTENT
100
AcDbLine
10
79.37499999953846
20
53.975000000000009
30
0
11
98.424999999538471
21
53.975000000000009
31
0
0
LINE
5
118
100
AcDbEntity
8
BEND_EXTENT
100
AcDbLine
10
79.374999999538488
20
51.28593931683362
30
0
11
98.424999999538471
21
51.28593931683362
31
0
0
ENDSEC
0
SECTION
2
OBJECTS
0
DICTIONARY
5
C
100
AcDbDictionary
3
ACAD_GROUP
350
D
3
ACAD_MLINESTYLE
350
17
0
DICTIONARY
5
D
100
AcDbDictionary
0
DICTIONARY
5
1A
330
C
100
AcDbDictionary
0
DICTIONARY
5
17
100
AcDbDictionary
0
ENDSEC
0
EOF
