0
SECTION
2
HEADER
9
$INSUNITS
70
4
9
$ACADVER
1
AC1014
9
$HANDSEED
5
FFFF
0
ENDSEC
0
SECTION
2
TABLES
0
TABLE
2
VPORT
5
8
100
AcDbSymbolTable
0
ENDTAB
0
TABLE
2
LTYPE
5
5
100
AcDbSymbolTable
0
LTYPE
5
14
100
AcDbSymbolTableRecord
100
AcDbLinetypeTableRecord
2
BYBLOCK
70
0
0
LTYPE
5
15
100
AcDbSymbolTableRecord
100
AcDbLinetypeTableRecord
2
BYLAYER
70
0
0
ENDTAB
0
TABLE
2
LAYER
5
2
100
AcDbSymbolTable
70
2
0
LAYER
5
50
100
AcDbSymbolTableRecord
100
AcDbLayerTableRecord
2
0
70
0
6
CONTINUOUS
0
ENDTAB
0
TABLE
2
STYLE
5
3
100
AcDbSymbolTable
70
1
0
STYLE
5
11
100
AcDbSymbolTableRecord
100
AcDbTextStyleTableRecord
2
STANDARD
70
0
0
ENDTAB
0
TABLE
2
VIEW
5
6
100
AcDbSymbolTable
70
0
0
ENDTAB
0
TABLE
2
UCS
5
7
100
AcDbSymbolTable
70
0
0
ENDTAB
0
TABLE
2
APPID
5
9
100
AcDbSymbolTable
70
2
0
APPID
5
12
100
AcDbSymbolTableRecord
100
AcDbRegAppTableRecord
2
ACAD
70
0
0
ENDTAB
0
TABLE
2
DIMSTYLE
5
A
100
AcDbSymbolTable
70
1
0
ENDTAB
0
TABLE
2
BLOCK_RECORD
5
1
100
AcDbSymbolTable
70
1
0
BLOCK_RECORD
5
1F
100
AcDbSymbolTableRecord
100
AcDbBlockTableRecord
2
*MODEL_SPACE
0
BLOCK_RECORD
5
1B
100
AcDbSymbolTableRecord
100
AcDbBlockTableRecord
2
*PAPER_SPACE
0
ENDTAB
0
ENDSEC
0
SECTION
2
BLOCKS
0
BLOCK
5
20
100
AcDbEntity
100
AcDbBlockBegin
2
*MODEL_SPACE
0
ENDBLK
5
21
100
AcDbEntity
100
AcDbBlockEnd
0
BLOCK
5
1C
100
AcDbEntity
100
AcDbBlockBegin
2
*PAPER_SPACE
0
ENDBLK
5
1D
100
AcDbEntity
100
AcDbBlockEnd
0
ENDSEC
0
SECTION
2
ENTITIES
0
LWPOLYLINE
5
100
100
AcDbEntity
8
OUTER_PROFILES
100
AcDbPolyline
90
40
70
1
43
0.0
10
-47.624999999758302
20
13.750000000092397
10
-23.494999999756992
20
13.750000000074225
42
-0.41421356237177687
10
-22.224999999758435
20
12.480000000079446
10
-22.224999999716669
20
-7.4421999999712529
10
-3.174999999745769
20
-7.4421999999712529
10
-3.1749999998097715
20
12.480000000499976
42
-0.41421356259638364
10
-1.9049999988129482
20
13.750000000509681
10
-1.2699999990236437
20
13.750000000020869
42
-0.41421356214762406
10
-1.2861933740282439e-12
20
12.480000000020857
10
0
20
0
10
76.200000000000003
20
0
10
76.199999999999676
20
12.480000000090357
42
-0.41421356237284918
10
77.469999999998564
20
13.75000000009031
10
78.105000000162988
20
13.750000000090292
42
-0.41421356237258805
10
79.37500000016405
20
12.480000000093593
10
79.375000000028848
20
-7.4421999999712529
10
98.424999999991272
20
-7.4421999999712263
10
98.424999999991257
20
12.480000000099537
42
-0.41421356237334089
10
99.694999999996696
20
13.750000000103919
10
123.82500000029511
20
13.750000000119741
10
123.82500000028558
20
49.750000000117964
10
99.695000000296176
20
49.750000000073115
42
-0.41421356237260343
10
98.425000000209764
20
51.020000000157459
10
98.425000000322726
20
70.942200000446377
10
79.375000000112323
20
70.942200000446377
10
79.375000000112294
20
51.020000000031402
42
-0.41421356236093387
10
78.105000000175181
20
49.750000000041567
10
77.470000000050874
20
49.750000000016009
42
-0.41421356238488538
10
76.199999999999761
20
51.020000000015997
10
76.200000000000017
20
63.5
10
0
20
63.5
10
-2.7755575615628914e-15
20
51.01999999938517
42
-0.41421356237250817
10
-1.2699999994920206
20
49.749999999890605
10
-1.9049999997195168
20
49.750000000668336
42
-0.41421356238229734
10
-3.1749999997535809
20
51.020000000660971
10
-3.1749999997583549
20
70.942200000386038
10
-22.224999999758349
20
70.942199999825121
10
-22.224999999759092
20
51.020000000664155
42
-0.41421356237303159
10
-23.494999999759436
20
49.750000000664159
10
-47.624999999758366
20
49.750000000624169
0
CIRCLE
5
101
100
AcDbEntity
8
INTERIOR_PROFILES
100
AcDbCircle
10
-38.100000000000001
20
31.749999999999986
30
0
40
2.3812500000000014
210
0
220
0
230
1
0
CIRCLE
5
102
100
AcDbEntity
8
INTERIOR_PROFILES
100
AcDbCircle
10
14.287499999953276
20
0.89333844104125149
30
0
40
3.1749999999999989
210
0
220
0
230
-1
0
CIRCLE
5
103
100
AcDbEntity
8
INTERIOR_PROFILES
100
AcDbCircle
10
-90.487499999999997
20
62.606661558898352
30
0
40
3.1750000000000078
210
0
220
0
230
-1
0
CIRCLE
5
104
100
AcDbEntity
8
INTERIOR_PROFILES
100
AcDbCircle
10
114.3
20
31.750000000000004
30
0
40
2.3812500000000014
210
0
220
0
230
1
0
CIRCLE
5
105
100
AcDbEntity
8
INTERIOR_PROFILES
100
AcDbCircle
10
-90.48750000002947
20
0.89333844116104899
30
0
40
3.1749999999999901
210
0
220
0
230
-1
0
CIRCLE
5
106
100
AcDbEntity
8
INTERIOR_PROFILES
100
AcDbCircle
10
14.287500000000009
20
62.606661558958024
30
0
40
3.1749999999999989
210
0
220
0
230
-1
0
LINE
5
107
100
AcDbEntity
8
BEND
100
AcDbLine
10
98.424999999987847
20
11.457569220595287
30
1.6653345132040771e-15
11
79.375000000166864
21
11.457569220542689
31
-1.3877787807814481e-16
0
LINE
5
108
100
AcDbEntity
8
BEND
100
AcDbLine
10
-3.1749999997587435
20
11.457569220590393
30
1.6653345817052764e-15
11
-22.22499999975394
21
11.457569220506954
31
-1.4127079708706484e-15
0
LINE
5
109
100
AcDbEntity
8
BEND
100
AcDbLine
10
-22.224999999758374
20
52.042430779457575
30
-5.5511151231260578e-16
11
-3.1749999997535738
21
52.042430779457575
31
0
0
LINE
5
110
100
AcDbEntity
8
BEND
100
AcDbLine
10
79.375000000112323
20
52.04243077948604
30
-5.5511151231218621e-16
11
98.425000000209778
21
52.042430779486047
31
-1.3877787807814457e-16
0
LINE
5
111
100
AcDbEntity
8
BEND_EXTENT
100
AcDbLine
10
-22.224999999758374
20
53.284861558913946
30
8.8817841970012523e-15
11
-3.1749999997541156
21
53.28486155891396
31
8.8817841970012523e-15
0
LINE
5
112
100
AcDbEntity
8
BEND_EXTENT
100
AcDbLine
10
-22.244200255712052
20
50.800000000001184
30
0
11
-3.1557997438010132
21
50.800000000001191
31
0
0
LINE
5
113
100
AcDbEntity
8
BEND_EXTENT
100
AcDbLine
10
-3.1749999997532963
20
10.215138441134002
30
0
11
-22.224999999753663
21
10.215138441050557
31
-4.4408920985006262e-15
0
LINE
5
114
100
AcDbEntity
8
BEND_EXTENT
100
AcDbLine
10
-3.1557997440518086
20
12.700000000046856
30
0
11
-22.244200255575137
21
12.699999999963243
31
0
0
LINE
5
115
100
AcDbEntity
8
BEND_EXTENT
100
AcDbLine
10
79.375000000112323
20
53.284861558942431
30
4.4408920985006262e-15
11
98.425000000222624
21
53.284861558942431
31
4.4408920985006262e-15
0
LINE
5
116
100
AcDbEntity
8
BEND_EXTENT
100
AcDbLine
10
79.355799744275544
20
50.800000000029655
30
0
11
98.444200256067575
21
50.800000000029669
31
0
0
LINE
5
117
100
AcDbEntity
8
BEND_EXTENT
100
AcDbLine
10
98.424999999991272
20
10.215138441138896
30
0
11
79.375000000148674
21
10.215138441086298
31
0
0
LINE
5
118
100
AcDbEntity
8
BEND_EXTENT
100
AcDbLine
10
98.444200255819055
20
12.70000000005172
30
0
11
79.35579974434377
21
12.69999999999901
31
0
0
ENDSEC
0
SECTION
2
OBJECTS
0
DICTIONARY
5
C
100
AcDbDictionary
3
ACAD_GROUP
350
D
3
ACAD_MLINESTYLE
350
17
0
DICTIONARY
5
D
100
AcDbDictionary
0
DICTIONARY
5
1A
330
C
100
AcDbDictionary
0
DICTIONARY
5
17
100
AcDbDictionary
0
ENDSEC
0
EOF
