0
SECTION
2
HEADER
9
$INSUNITS
70
4
9
$ACADVER
1
AC1014
9
$HANDSEED
5
FFFF
0
ENDSEC
0
SECTION
2
TABLES
0
TABLE
2
VPORT
5
8
100
AcDbSymbolTable
0
ENDTAB
0
TABLE
2
LTYPE
5
5
100
AcDbSymbolTable
0
LTYPE
5
14
100
AcDbSymbolTableRecord
100
AcDbLinetypeTableRecord
2
BYBLOCK
70
0
0
LTYPE
5
15
100
AcDbSymbolTableRecord
100
AcDbLinetypeTableRecord
2
BYLAYER
70
0
0
ENDTAB
0
TABLE
2
LAYER
5
2
100
AcDbSymbolTable
70
2
0
LAYER
5
50
100
AcDbSymbolTableRecord
100
AcDbLayerTableRecord
2
0
70
0
6
CONTINUOUS
0
ENDTAB
0
TABLE
2
STYLE
5
3
100
AcDbSymbolTable
70
1
0
STYLE
5
11
100
AcDbSymbolTableRecord
100
AcDbTextStyleTableRecord
2
STANDARD
70
0
0
ENDTAB
0
TABLE
2
VIEW
5
6
100
AcDbSymbolTable
70
0
0
ENDTAB
0
TABLE
2
UCS
5
7
100
AcDbSymbolTable
70
0
0
ENDTAB
0
TABLE
2
APPID
5
9
100
AcDbSymbolTable
70
2
0
APPID
5
12
100
AcDbSymbolTableRecord
100
AcDbRegAppTableRecord
2
ACAD
70
0
0
ENDTAB
0
TABLE
2
DIMSTYLE
5
A
100
AcDbSymbolTable
70
1
0
ENDTAB
0
TABLE
2
BLOCK_RECORD
5
1
100
AcDbSymbolTable
70
1
0
BLOCK_RECORD
5
1F
100
AcDbSymbolTableRecord
100
AcDbBlockTableRecord
2
*MODEL_SPACE
0
BLOCK_RECORD
5
1B
100
AcDbSymbolTableRecord
100
AcDbBlockTableRecord
2
*PAPER_SPACE
0
ENDTAB
0
ENDSEC
0
SECTION
2
BLOCKS
0
BLOCK
5
20
100
AcDbEntity
100
AcDbBlockBegin
2
*MODEL_SPACE
0
ENDBLK
5
21
100
AcDbEntity
100
AcDbBlockEnd
0
BLOCK
5
1C
100
AcDbEntity
100
AcDbBlockBegin
2
*PAPER_SPACE
0
ENDBLK
5
1D
100
AcDbEntity
100
AcDbBlockEnd
0
ENDSEC
0
SECTION
2
ENTITIES
0
LWPOLYLINE
5
100
100
AcDbEntity
8
OUTER_PROFILES
100
AcDbPolyline
90
40
70
1
43
0.0
10
123.8249999985818
20
13.750000000369269
10
123.82499999790153
20
49.750000000369276
10
99.694999998663988
20
49.750000000369255
42
-0.41421356237309914
10
98.424999998663978
20
51.020000000369279
10
98.42499999865403
20
71.437500000000981
10
79.374999998653905
20
71.437500000000981
10
79.374999998653848
20
51.020000000369244
42
-0.41421356237309304
10
78.104999998653852
20
49.750000000369241
10
77.469999999999729
20
49.750000000369241
42
-0.41421356237308488
10
76.199999999999747
20
51.020000000369208
10
76.200000000000003
20
63.5
10
0
20
63.5
10
1.124100812432971e-13
20
51.019999999863771
42
-0.41421356237326407
10
-1.2699999994951738
20
49.750000000369205
10
-1.9050000020985607
20
49.750000000369226
42
-0.41421356237309515
10
-3.1750000020985416
20
51.020000000369208
10
-3.1750000020985638
20
71.437499999999133
10
-22.225000002098568
20
71.437499999999133
10
-22.225000002098465
20
51.020000000369151
42
-0.41421356237309304
10
-23.495000002098429
20
49.750000000369155
10
-47.625000002098503
20
49.750000000369155
10
-47.625000002098474
20
13.749999998749471
10
-23.495000002110437
20
13.749999998977426
42
-0.41421356237586132
10
-22.225000002098483
20
12.47999999897746
10
-22.225000002098628
20
-7.9375000000008633
10
-3.175000002098527
20
-7.9375000000008544
10
-3.1750000020984874
20
12.479999999181413
42
-0.41421356237031037
10
-1.9050000021105642
20
13.74999999918141
10
-1.2700000000121161
20
13.74999999918742
42
-0.41421356237585683
10
-1.0075273948473296e-13
20
12.479999999187436
10
0
20
0
10
76.199999999999989
20
0
10
76.199999999999719
20
12.479999999931346
42
-0.41421356237066159
10
77.469999999989113
20
13.749999999931301
10
78.10499999864183
20
13.749999999937312
42
-0.41421356237585677
10
79.374999998653777
20
12.479999999937339
10
79.374999998653777
20
-7.9375000000008367
10
98.424999998653902
20
-7.9375000000008189
10
98.424999998653874
20
12.480000000141281
42
-0.41421356237307666
10
99.694999998653884
20
13.750000000141284
0
CIRCLE
5
101
100
AcDbEntity
8
INTERIOR_PROFILES
100
AcDbCircle
10
-114.3
20
31.75
30
0
40
2.3812500000000014
210
0
220
0
230
-1
0
CIRCLE
5
102
100
AcDbEntity
8
INTERIOR_PROFILES
100
AcDbCircle
10
-90.599999999999994
20
61.912500000000847
30
0
40
3.1749999999999901
210
0
220
0
230
-1
0
CIRCLE
5
103
100
AcDbEntity
8
INTERIOR_PROFILES
100
AcDbCircle
10
14.399999999999968
20
61.912500000000833
30
0
40
3.1749999999999989
210
0
220
0
230
-1
0
CIRCLE
5
104
100
AcDbEntity
8
INTERIOR_PROFILES
100
AcDbCircle
10
38.100000000000001
20
31.749999999999979
30
0
40
2.3812500000000014
210
0
220
0
230
-1
0
CIRCLE
5
105
100
AcDbEntity
8
INTERIOR_PROFILES
100
AcDbCircle
10
14.399999999999974
20
1.5874999999991513
30
0
40
3.1749999999999989
210
0
220
0
230
-1
0
CIRCLE
5
106
100
AcDbEntity
8
INTERIOR_PROFILES
100
AcDbCircle
10
-90.600000000000023
20
1.5874999999991513
30
0
40
3.1749999999999901
210
0
220
0
230
-1
0
LINE
5
107
100
AcDbEntity
8
BEND
100
AcDbLine
10
-22.22500000209849
20
51.307999999999971
30
-8.3266726846886642e-16
11
-3.1750000020985425
21
51.307999999999979
31
2.8922928090727026e-16
0
LINE
5
108
100
AcDbEntity
8
BEND
100
AcDbLine
10
79.374999998653863
20
51.308000000000014
30
-8.3266726846867956e-16
11
98.424999998663978
21
51.308000000000021
31
-1.3877787807814457e-16
0
LINE
5
109
100
AcDbEntity
8
BEND
100
AcDbLine
10
98.424999998653846
20
12.192000000000064
30
1.3877787809047525e-15
11
79.374999998653777
21
12.191999999999968
31
5.5511151231257827e-16
0
LINE
5
110
100
AcDbEntity
8
BEND
100
AcDbLine
10
-3.1750000020984799
20
12.19199999999995
30
-8.3266726848321679e-16
11
-22.225000002098476
21
12.191999999999963
31
-1.2710435335364242e-16
0
LINE
5
111
100
AcDbEntity
8
BEND_EXTENT
100
AcDbLine
10
-22.22500000209849
20
52.652530341583159
30
0
11
-3.1750000020985336
21
52.652530341583166
31
0
0
LINE
5
112
100
AcDbEntity
8
BEND_EXTENT
100
AcDbLine
10
-22.790270524544134
20
49.963469658416777
30
0
11
-2.6097294796527937
21
49.963469658416784
31
0
0
LINE
5
113
100
AcDbEntity
8
BEND_EXTENT
100
AcDbLine
10
79.374999998653863
20
52.652530341583216
30
0
11
98.424999998663196
21
52.65253034158323
31
0
0
LINE
5
114
100
AcDbEntity
8
BEND_EXTENT
100
AcDbLine
10
78.809729476208105
20
49.96346965841682
30
0
11
98.990270521109693
21
49.963469658416827
31
0
0
LINE
5
115
100
AcDbEntity
8
BEND_EXTENT
100
AcDbLine
10
-3.1750000020984785
20
10.847469658416768
30
-2.2204460492503131e-15
11
-22.225000002098483
21
10.847469658416777
31
-2.2204460492503131e-15
0
LINE
5
116
100
AcDbEntity
8
BEND_EXTENT
100
AcDbLine
10
-2.6097294789791183
20
13.536530341583157
30
0
11
-22.790270525523653
21
13.53653034158317
31
0
0
LINE
5
117
100
AcDbEntity
8
BEND_EXTENT
100
AcDbLine
10
98.424999998653874
20
10.847469658416866
30
0
11
79.37499999865382
21
10.847469658416774
31
0
0
LINE
5
118
100
AcDbEntity
8
BEND_EXTENT
100
AcDbLine
10
98.990270520334406
20
13.536530341583251
30
0
11
78.809729476667684
21
13.536530341583152
31
0
0
ENDSEC
0
SECTION
2
OBJECTS
0
DICTIONARY
5
C
100
AcDbDictionary
3
ACAD_GROUP
350
D
3
ACAD_MLINESTYLE
350
17
0
DICTIONARY
5
D
100
AcDbDictionary
0
DICTIONARY
5
1A
330
C
100
AcDbDictionary
0
DICTIONARY
5
17
100
AcDbDictionary
0
ENDSEC
0
EOF
