0
SECTION
2
HEADER
9
$INSUNITS
70
1
9
$ACADVER
1
AC1014
9
$HANDSEED
5
FFFF
0
ENDSEC
0
SECTION
2
TABLES
0
TABLE
2
VPORT
5
8
100
AcDbSymbolTable
0
ENDTAB
0
TABLE
2
LTYPE
5
5
100
AcDbSymbolTable
0
LTYPE
5
14
100
AcDbSymbolTableRecord
100
AcDbLinetypeTableRecord
2
BYBLOCK
70
0
0
LTYPE
5
15
100
AcDbSymbolTableRecord
100
AcDbLinetypeTableRecord
2
BYLAYER
70
0
0
ENDTAB
0
TABLE
2
LAYER
5
2
100
AcDbSymbolTable
70
2
0
LAYER
5
50
100
AcDbSymbolTableRecord
100
AcDbLayerTableRecord
2
0
70
0
6
CONTINUOUS
0
ENDTAB
0
TABLE
2
STYLE
5
3
100
AcDbSymbolTable
70
1
0
STYLE
5
11
100
AcDbSymbolTableRecord
100
AcDbTextStyleTableRecord
2
STANDARD
70
0
0
ENDTAB
0
TABLE
2
VIEW
5
6
100
AcDbSymbolTable
70
0
0
ENDTAB
0
TABLE
2
UCS
5
7
100
AcDbSymbolTable
70
0
0
ENDTAB
0
TABLE
2
APPID
5
9
100
AcDbSymbolTable
70
2
0
APPID
5
12
100
AcDbSymbolTableRecord
100
AcDbRegAppTableRecord
2
ACAD
70
0
0
ENDTAB
0
TABLE
2
DIMSTYLE
5
A
100
AcDbSymbolTable
70
1
0
ENDTAB
0
TABLE
2
BLOCK_RECORD
5
1
100
AcDbSymbolTable
70
1
0
BLOCK_RECORD
5
1F
100
AcDbSymbolTableRecord
100
AcDbBlockTableRecord
2
*MODEL_SPACE
0
BLOCK_RECORD
5
1B
100
AcDbSymbolTableRecord
100
AcDbBlockTableRecord
2
*PAPER_SPACE
0
ENDTAB
0
ENDSEC
0
SECTION
2
BLOCKS
0
BLOCK
5
20
100
AcDbEntity
100
AcDbBlockBegin
2
*MODEL_SPACE
0
ENDBLK
5
21
100
AcDbEntity
100
AcDbBlockEnd
0
BLOCK
5
1C
100
AcDbEntity
100
AcDbBlockBegin
2
*PAPER_SPACE
0
ENDBLK
5
1D
100
AcDbEntity
100
AcDbBlockEnd
0
ENDSEC
0
SECTION
2
ENTITIES
0
LWPOLYLINE
5
100
100
AcDbEntity
8
OUTER_PROFILES
100
AcDbPolyline
90
12
70
1
43
0.0
10
7.0625000000003091
20
4.4999999999995115
10
7.0625000000002887
20
4.1839830815250645
42
2.3187293044088197
10
7.1875000000002895
20
4.1839830815250565
10
7.1875000000003109
20
4.4999999999995026
10
7.5000000000020011
20
4.4999999999994822
10
7.4999999999999982
20
0
10
0
20
0
10
3.0771535800634256e-13
20
4.4999999999999991
10
0.31250000000030742
20
4.4999999999999787
10
0.31250000000028644
20
4.1839830815255308
42
2.318729304408838
10
0.43750000000028666
20
4.1839830815255228
10
0.43750000000030703
20
4.4999999999999698
0
CIRCLE
5
101
100
AcDbEntity
8
INTERIOR_PROFILES
100
AcDbCircle
10
-5.1875000000001439
20
2.0624999999996416
30
0
40
0.060000000000000032
210
0
220
0
230
-1
0
CIRCLE
5
102
100
AcDbEntity
8
INTERIOR_PROFILES
100
AcDbCircle
10
-4.8340000000000165
20
0.24999999999966682
30
0
40
0.08850000000000019
210
0
220
0
230
-1
0
CIRCLE
5
103
100
AcDbEntity
8
INTERIOR_PROFILES
100
AcDbCircle
10
-6.3750000000002407
20
3.4999999999995595
30
0
40
0.24999999999999989
210
0
220
0
230
-1
0
CIRCLE
5
104
100
AcDbEntity
8
INTERIOR_PROFILES
100
AcDbCircle
10
-2.102000000000126
20
1.8326456692911925
30
0
40
0.060000000000000032
210
0
220
0
230
-1
0
CIRCLE
5
105
100
AcDbEntity
8
INTERIOR_PROFILES
100
AcDbCircle
10
-3.2040000000001259
20
1.8326456692911164
30
0
40
0.060000000000000032
210
0
220
0
230
-1
0
LWPOLYLINE
5
106
100
AcDbEntity
8
INTERIOR_PROFILES
100
AcDbPolyline
90
4
70
1
43
0.0
10
5.5000000000001492
20
2.1640624999996199
10
5.5000000000002132
20
3.0859374999996203
10
4.8750000000002132
20
3.0859374999996634
10
4.8750000000001483
20
2.1640624999996634
0
CIRCLE
5
107
100
AcDbEntity
8
INTERIOR_PROFILES
100
AcDbCircle
10
-1.0000000000001255
20
1.8326456692912685
30
0
40
0.060000000000000032
210
0
220
0
230
-1
0
CIRCLE
5
108
100
AcDbEntity
8
INTERIOR_PROFILES
100
AcDbCircle
10
-1.0000000000002458
20
3.5846456692912687
30
0
40
0.060000000000000032
210
0
220
0
230
-1
0
CIRCLE
5
109
100
AcDbEntity
8
INTERIOR_PROFILES
100
AcDbCircle
10
-6.3750000000001288
20
1.8749999999995597
30
0
40
0.1249999999999996
210
0
220
0
230
-1
0
CIRCLE
5
110
100
AcDbEntity
8
INTERIOR_PROFILES
100
AcDbCircle
10
-2.1020000000002463
20
3.5846456692911928
30
0
40
0.060000000000000032
210
0
220
0
230
-1
0
CIRCLE
5
111
100
AcDbEntity
8
INTERIOR_PROFILES
100
AcDbCircle
10
-5.1875000000002203
20
3.1874999999996421
30
0
40
0.060000000000000032
210
0
220
0
230
-1
0
CIRCLE
5
112
100
AcDbEntity
8
INTERIOR_PROFILES
100
AcDbCircle
10
-4.3060000000001262
20
1.8326456692910407
30
0
40
0.060000000000000032
210
0
220
0
230
-1
0
CIRCLE
5
113
100
AcDbEntity
8
INTERIOR_PROFILES
100
AcDbCircle
10
-3.2040000000002462
20
3.5846456692911168
30
0
40
0.060000000000000032
210
0
220
0
230
-1
0
CIRCLE
5
114
100
AcDbEntity
8
INTERIOR_PROFILES
100
AcDbCircle
10
-0.50000000000001799
20
0.24999999999996536
30
0
40
0.08850000000000019
210
0
220
0
230
-1
0
CIRCLE
5
115
100
AcDbEntity
8
INTERIOR_PROFILES
100
AcDbCircle
10
-6.3750000000001457
20
2.1249999999995595
30
0
40
0.0625000000000005
210
0
220
0
230
-1
0
CIRCLE
5
116
100
AcDbEntity
8
INTERIOR_PROFILES
100
AcDbCircle
10
-2.6670000000000171
20
0.24999999999981631
30
0
40
0.08850000000000019
210
0
220
0
230
-1
0
CIRCLE
5
117
100
AcDbEntity
8
INTERIOR_PROFILES
100
AcDbCircle
10
-4.306000000000247
20
3.5846456692910404
30
0
40
0.060000000000000032
210
0
220
0
230
-1
0
CIRCLE
5
118
100
AcDbEntity
8
INTERIOR_PROFILES
100
AcDbCircle
10
-7.0010000000000181
20
0.24999999999951777
30
0
40
0.088499999999999482
210
0
220
0
230
-1
0
LINE
5
119
100
AcDbEntity
8
BEND
100
AcDbLine
10
5.5948246910244104e-14
20
0.78528951027777594
30
1.1559984278730859e-17
11
7.5000000000003322
21
0.78528951027777194
31
-9.1545104934613918e-17
0
LINE
5
120
100
AcDbEntity
8
BEND_EXTENT
100
AcDbLine
10
5.5948246910244104e-14
20
0.82057902055555021
30
1.7483827159451283e-16
11
7.5000000000003633
21
0.82057902055554588
31
1.7483827159451283e-16
0
LINE
5
121
100
AcDbEntity
8
BEND_EXTENT
100
AcDbLine
10
5.1752128391975797e-14
20
0.750000000000002
30
0
11
7.5000000000003322
21
0.74999999999999789
31
0
0
ENDSEC
0
SECTION
2
OBJECTS
0
DICTIONARY
5
C
100
AcDbDictionary
3
ACAD_GROUP
350
D
3
ACAD_MLINESTYLE
350
17
0
DICTIONARY
5
D
100
AcDbDictionary
0
DICTIONARY
5
1A
330
C
100
AcDbDictionary
0
DICTIONARY
5
17
100
AcDbDictionary
0
ENDSEC
0
EOF
