0
SECTION
2
HEADER
9
$INSUNITS
70
1
9
$ACADVER
1
AC1014
9
$HANDSEED
5
FFFF
0
ENDSEC
0
SECTION
2
TABLES
0
TABLE
2
VPORT
5
8
100
AcDbSymbolTable
0
ENDTAB
0
TABLE
2
LTYPE
5
5
100
AcDbSymbolTable
0
LTYPE
5
14
100
AcDbSymbolTableRecord
100
AcDbLinetypeTableRecord
2
BYBLOCK
70
0
0
LTYPE
5
15
100
AcDbSymbolTableRecord
100
AcDbLinetypeTableRecord
2
BYLAYER
70
0
0
ENDTAB
0
TABLE
2
LAYER
5
2
100
AcDbSymbolTable
70
2
0
LAYER
5
50
100
AcDbSymbolTableRecord
100
AcDbLayerTableRecord
2
0
70
0
6
CONTINUOUS
0
ENDTAB
0
TABLE
2
STYLE
5
3
100
AcDbSymbolTable
70
1
0
STYLE
5
11
100
AcDbSymbolTableRecord
100
AcDbTextStyleTableRecord
2
STANDARD
70
0
0
ENDTAB
0
TABLE
2
VIEW
5
6
100
AcDbSymbolTable
70
0
0
ENDTAB
0
TABLE
2
UCS
5
7
100
AcDbSymbolTable
70
0
0
ENDTAB
0
TABLE
2
APPID
5
9
100
AcDbSymbolTable
70
2
0
APPID
5
12
100
AcDbSymbolTableRecord
100
AcDbRegAppTableRecord
2
ACAD
70
0
0
ENDTAB
0
TABLE
2
DIMSTYLE
5
A
100
AcDbSymbolTable
70
1
0
ENDTAB
0
TABLE
2
BLOCK_RECORD
5
1
100
AcDbSymbolTable
70
1
0
BLOCK_RECORD
5
1F
100
AcDbSymbolTableRecord
100
AcDbBlockTableRecord
2
*MODEL_SPACE
0
BLOCK_RECORD
5
1B
100
AcDbSymbolTableRecord
100
AcDbBlockTableRecord
2
*PAPER_SPACE
0
ENDTAB
0
ENDSEC
0
SECTION
2
BLOCKS
0
BLOCK
5
20
100
AcDbEntity
100
AcDbBlockBegin
2
*MODEL_SPACE
0
ENDBLK
5
21
100
AcDbEntity
100
AcDbBlockEnd
0
BLOCK
5
1C
100
AcDbEntity
100
AcDbBlockBegin
2
*PAPER_SPACE
0
ENDBLK
5
1D
100
AcDbEntity
100
AcDbBlockEnd
0
ENDSEC
0
SECTION
2
ENTITIES
0
LWPOLYLINE
5
100
100
AcDbEntity
8
OUTER_PROFILES
100
AcDbPolyline
90
12
70
1
43
0.0
10
0.31250000000074207
20
4.1839830815259242
42
2.3187293044088086
10
0.4375000000007439
20
4.1839830815259482
10
0.43750000000069306
20
4.5000000000000027
10
7.0624999999998144
20
4.5000000000003642
10
7.0624999999998685
20
4.1839830815261712
42
2.318729304408865
10
7.1874999999998685
20
4.1839830815262289
10
7.1874999999998153
20
4.5000000000003713
10
7.500000000003082
20
4.5000000000003881
10
7.5000000000006377
20
-3.4967654318902565e-16
10
7.9507240841172837e-29
20
0
10
7.0215049872356356e-13
20
4.4999999999999787
10
0.31250000000068928
20
4.4999999999999964
0
LWPOLYLINE
5
101
100
AcDbEntity
8
INTERIOR_PROFILES
100
AcDbPolyline
90
4
70
1
43
0.0
10
5.3437500000001066
20
2.9062499999998779
10
5.3437500000002309
20
2.3437499999998925
10
5.0312500000002371
20
2.3437499999998388
10
5.0312500000001066
20
2.9062499999998237
0
CIRCLE
5
102
100
AcDbEntity
8
INTERIOR_PROFILES
100
AcDbCircle
10
-2.1020078740166075
20
1.8326377952758139
30
0
40
0.060000000000000032
210
0
220
0
230
-1
0
CIRCLE
5
103
100
AcDbEntity
8
INTERIOR_PROFILES
100
AcDbCircle
10
-3.2040157480320537
20
3.5846456692917519
30
0
40
0.060000000000000032
210
0
220
0
230
-1
0
CIRCLE
5
104
100
AcDbEntity
8
INTERIOR_PROFILES
100
AcDbCircle
10
-6.3750000000002931
20
1.8750000000001941
30
0
40
0.1249999999999996
210
0
220
0
230
-1
0
CIRCLE
5
105
100
AcDbEntity
8
INTERIOR_PROFILES
100
AcDbCircle
10
-5.1874999999999165
20
3.1874999999998099
30
0
40
0.08850000000000019
210
0
220
0
230
-1
0
CIRCLE
5
106
100
AcDbEntity
8
INTERIOR_PROFILES
100
AcDbCircle
10
-3.2040157480323557
20
1.832637795276004
30
0
40
0.060000000000000032
210
0
220
0
230
-1
0
CIRCLE
5
107
100
AcDbEntity
8
INTERIOR_PROFILES
100
AcDbCircle
10
-2.6670078740171808
20
0.25000000000045852
30
0
40
0.08850000000000019
210
0
220
0
230
-1
0
CIRCLE
5
108
100
AcDbEntity
8
INTERIOR_PROFILES
100
AcDbCircle
10
-5.1875000000000941
20
2.0624999999998583
30
0
40
0.08850000000000019
210
0
220
0
230
-1
0
CIRCLE
5
109
100
AcDbEntity
8
INTERIOR_PROFILES
100
AcDbCircle
10
-0.50000000000143208
20
0.25000000000008504
30
0
40
0.08850000000000019
210
0
220
0
230
-1
0
CIRCLE
5
110
100
AcDbEntity
8
INTERIOR_PROFILES
100
AcDbCircle
10
-1.0000000000005576
20
3.5846456692913722
30
0
40
0.060000000000000032
210
0
220
0
230
-1
0
CIRCLE
5
111
100
AcDbEntity
8
INTERIOR_PROFILES
100
AcDbCircle
10
-4.8340157480329289
20
0.25000000000083195
30
0
40
0.08850000000000019
210
0
220
0
230
-1
0
CIRCLE
5
112
100
AcDbEntity
8
INTERIOR_PROFILES
100
AcDbCircle
10
-7.0010236220486783
20
0.25000000000120576
30
0
40
0.088499999999999482
210
0
220
0
230
-1
0
CIRCLE
5
113
100
AcDbEntity
8
INTERIOR_PROFILES
100
AcDbCircle
10
-2.102007874016306
20
3.5846456692915623
30
0
40
0.060000000000000032
210
0
220
0
230
-1
0
CIRCLE
5
114
100
AcDbEntity
8
INTERIOR_PROFILES
100
AcDbCircle
10
-1.0000000000008598
20
1.8326377952756239
30
0
40
0.060000000000000032
210
0
220
0
230
-1
0
CIRCLE
5
115
100
AcDbEntity
8
INTERIOR_PROFILES
100
AcDbCircle
10
-6.3750000000000329
20
3.500000000000056
30
0
40
0.24999999999999989
210
0
220
0
230
-1
0
CIRCLE
5
116
100
AcDbEntity
8
INTERIOR_PROFILES
100
AcDbCircle
10
-4.3060236220478023
20
3.5846456692919428
30
0
40
0.060000000000000032
210
0
220
0
230
-1
0
CIRCLE
5
117
100
AcDbEntity
8
INTERIOR_PROFILES
100
AcDbCircle
10
-4.3060236220481043
20
1.8326377952761939
30
0
40
0.060000000000000032
210
0
220
0
230
-1
0
CIRCLE
5
118
100
AcDbEntity
8
INTERIOR_PROFILES
100
AcDbCircle
10
-6.3750000000002451
20
2.1250000000001941
30
0
40
0.0625000000000005
210
0
220
0
230
-1
0
LINE
5
119
100
AcDbEntity
8
BEND
100
AcDbLine
10
1.2308614320253702e-13
20
0.77646713270791079
30
-4.3059854427715352e-17
11
7.5000000000010445
21
0.77646713270785028
31
-8.2733888584573112e-17
0
LINE
5
120
100
AcDbEntity
8
BEND_EXTENT
100
AcDbLine
10
1.2308614320253702e-13
20
0.8029342654162418
30
-1.7483827159451283e-16
11
7.500000000001072
21
0.80293426541618063
31
-3.4967654318902565e-16
0
LINE
5
121
100
AcDbEntity
8
BEND_EXTENT
100
AcDbLine
10
1.1469390616600042e-13
20
0.74999999999958056
30
0
11
7.5000000000010445
21
0.74999999999951961
31
0
0
ENDSEC
0
SECTION
2
OBJECTS
0
DICTIONARY
5
C
100
AcDbDictionary
3
ACAD_GROUP
350
D
3
ACAD_MLINESTYLE
350
17
0
DICTIONARY
5
D
100
AcDbDictionary
0
DICTIONARY
5
1A
330
C
100
AcDbDictionary
0
DICTIONARY
5
17
100
AcDbDictionary
0
ENDSEC
0
EOF
