0
SECTION
2
HEADER
9
$INSUNITS
70
1
9
$ACADVER
1
AC1014
9
$HANDSEED
5
FFFF
0
ENDSEC
0
SECTION
2
TABLES
0
TABLE
2
VPORT
5
8
100
AcDbSymbolTable
0
ENDTAB
0
TABLE
2
LTYPE
5
5
100
AcDbSymbolTable
0
LTYPE
5
14
100
AcDbSymbolTableRecord
100
AcDbLinetypeTableRecord
2
BYBLOCK
70
0
0
LTYPE
5
15
100
AcDbSymbolTableRecord
100
AcDbLinetypeTableRecord
2
BYLAYER
70
0
0
ENDTAB
0
TABLE
2
LAYER
5
2
100
AcDbSymbolTable
70
2
0
LAYER
5
50
100
AcDbSymbolTableRecord
100
AcDbLayerTableRecord
2
0
70
0
6
CONTINUOUS
0
ENDTAB
0
TABLE
2
STYLE
5
3
100
AcDbSymbolTable
70
1
0
STYLE
5
11
100
AcDbSymbolTableRecord
100
AcDbTextStyleTableRecord
2
STANDARD
70
0
0
ENDTAB
0
TABLE
2
VIEW
5
6
100
AcDbSymbolTable
70
0
0
ENDTAB
0
TABLE
2
UCS
5
7
100
AcDbSymbolTable
70
0
0
ENDTAB
0
TABLE
2
APPID
5
9
100
AcDbSymbolTable
70
2
0
APPID
5
12
100
AcDbSymbolTableRecord
100
AcDbRegAppTableRecord
2
ACAD
70
0
0
ENDTAB
0
TABLE
2
DIMSTYLE
5
A
100
AcDbSymbolTable
70
1
0
ENDTAB
0
TABLE
2
BLOCK_RECORD
5
1
100
AcDbSymbolTable
70
1
0
BLOCK_RECORD
5
1F
100
AcDbSymbolTableRecord
100
AcDbBlockTableRecord
2
*MODEL_SPACE
0
BLOCK_RECORD
5
1B
100
AcDbSymbolTableRecord
100
AcDbBlockTableRecord
2
*PAPER_SPACE
0
ENDTAB
0
ENDSEC
0
SECTION
2
BLOCKS
0
BLOCK
5
20
100
AcDbEntity
100
AcDbBlockBegin
2
*MODEL_SPACE
0
ENDBLK
5
21
100
AcDbEntity
100
AcDbBlockEnd
0
BLOCK
5
1C
100
AcDbEntity
100
AcDbBlockBegin
2
*PAPER_SPACE
0
ENDBLK
5
1D
100
AcDbEntity
100
AcDbBlockEnd
0
ENDSEC
0
SECTION
2
ENTITIES
0
LWPOLYLINE
5
100
100
AcDbEntity
8
OUTER_PROFILES
100
AcDbPolyline
90
11
70
1
43
0.0
10
7.0624999999999947
20
5.6839830815262093
42
2.318729304408838
10
7.1874999999999956
20
5.6839830815262093
10
7.1874999999999947
20
6.000000000000667
10
7.499999999999825
20
6.0000000000006972
10
7.4999999999999982
20
3.4967654318902565e-16
10
1.9876810210293209e-29
20
0
10
1.7343956542175673e-13
20
4.3125000000006501
10
3.1875000000006724
20
4.3125000000006501
42
0.41421356237309337
10
3.3124999999999951
20
4.4374999999999742
10
3.3124999999998619
20
6.0000000000003082
10
7.0624999999999947
20
6.0000000000006564
0
CIRCLE
5
101
100
AcDbEntity
8
INTERIOR_PROFILES
100
AcDbCircle
10
-0.50000000000024181
20
0.25000000000000006
30
0
40
0.08850000000000019
210
0
220
0
230
-1
0
CIRCLE
5
102
100
AcDbEntity
8
INTERIOR_PROFILES
100
AcDbCircle
10
-2.2043622047246521
20
2.2480000000006504
30
0
40
0.060000000000000032
210
0
220
0
230
-1
0
LWPOLYLINE
5
103
100
AcDbEntity
8
INTERIOR_PROFILES
100
AcDbPolyline
90
4
70
1
43
0.0
10
4.9374999999999991
20
2.6640625000006968
10
4.9374999999999991
20
3.5859375000006968
10
5.5625
20
3.5859375000006968
10
5.5624999999999991
20
2.6640625000006968
0
CIRCLE
5
104
100
AcDbEntity
8
INTERIOR_PROFILES
100
AcDbCircle
10
-4.8340000000002421
20
0.24999999999999989
30
0
40
0.08850000000000019
210
0
220
0
230
-1
0
CIRCLE
5
105
100
AcDbEntity
8
INTERIOR_PROFILES
100
AcDbCircle
10
-6.3749999999999947
20
3.1250000000006501
30
0
40
0.24999999999999989
210
0
220
0
230
-1
0
CIRCLE
5
106
100
AcDbEntity
8
INTERIOR_PROFILES
100
AcDbCircle
10
-6.4133858267716484
20
4.7500000000006501
30
0
40
0.063976377952755056
210
0
220
0
230
-1
0
CIRCLE
5
107
100
AcDbEntity
8
INTERIOR_PROFILES
100
AcDbCircle
10
-1.1023622047246515
20
4.0000000000006501
30
0
40
0.060000000000000032
210
0
220
0
230
-1
0
CIRCLE
5
108
100
AcDbEntity
8
INTERIOR_PROFILES
100
AcDbCircle
10
-4.4083622047246527
20
2.2480000000006504
30
0
40
0.060000000000000032
210
0
220
0
230
-1
0
CIRCLE
5
109
100
AcDbEntity
8
INTERIOR_PROFILES
100
AcDbCircle
10
-2.6670000000002423
20
0.24999999999999989
30
0
40
0.08850000000000019
210
0
220
0
230
-1
0
CIRCLE
5
110
100
AcDbEntity
8
INTERIOR_PROFILES
100
AcDbCircle
10
-5.25
20
2.5625000000006959
30
0
40
0.060000000000000032
210
0
220
0
230
-1
0
CIRCLE
5
111
100
AcDbEntity
8
INTERIOR_PROFILES
100
AcDbCircle
10
-5.9999999999999947
20
4.7500000000006501
30
0
40
0.19685039370078738
210
0
220
0
230
-1
0
CIRCLE
5
112
100
AcDbEntity
8
INTERIOR_PROFILES
100
AcDbCircle
10
-3.3063622047246528
20
2.2480000000006504
30
0
40
0.060000000000000032
210
0
220
0
230
-1
0
CIRCLE
5
113
100
AcDbEntity
8
INTERIOR_PROFILES
100
AcDbCircle
10
-7.0010000000002419
20
0.24999999999999972
30
0
40
0.088499999999999482
210
0
220
0
230
-1
0
CIRCLE
5
114
100
AcDbEntity
8
INTERIOR_PROFILES
100
AcDbCircle
10
-1.1023622047246515
20
2.2480000000006504
30
0
40
0.060000000000000032
210
0
220
0
230
-1
0
CIRCLE
5
115
100
AcDbEntity
8
INTERIOR_PROFILES
100
AcDbCircle
10
-5.2499999999999991
20
3.6875000000006968
30
0
40
0.060000000000000032
210
0
220
0
230
-1
0
CIRCLE
5
116
100
AcDbEntity
8
INTERIOR_PROFILES
100
AcDbCircle
10
-4.4083622047246527
20
4.0000000000006501
30
0
40
0.060000000000000032
210
0
220
0
230
-1
0
CIRCLE
5
117
100
AcDbEntity
8
INTERIOR_PROFILES
100
AcDbCircle
10
-2.2043622047246521
20
4.0000000000006501
30
0
40
0.060000000000000032
210
0
220
0
230
-1
0
CIRCLE
5
118
100
AcDbEntity
8
INTERIOR_PROFILES
100
AcDbCircle
10
-3.3063622047246528
20
4.0000000000006501
30
0
40
0.060000000000000032
210
0
220
0
230
-1
0
LINE
5
119
100
AcDbEntity
8
BEND
100
AcDbLine
10
7.2732720983317339e-14
20
1.7852895102777742
30
1.5211720301731773e-16
11
7.4999999999999476
21
1.7852895102777737
31
1.1031185144620447e-16
0
LINE
5
120
100
AcDbEntity
8
BEND_EXTENT
100
AcDbLine
10
7.2732720983317339e-14
20
1.8205790205555483
30
1.7483827159451283e-16
11
7.4999999999999467
21
1.8205790205555483
31
1.7483827159451283e-16
0
LINE
5
121
100
AcDbEntity
8
BEND_EXTENT
100
AcDbLine
10
6.9935308637805126e-14
20
1.75
30
0
11
7.4999999999999476
21
1.7499999999999996
31
0
0
ENDSEC
0
SECTION
2
OBJECTS
0
DICTIONARY
5
C
100
AcDbDictionary
3
ACAD_GROUP
350
D
3
ACAD_MLINESTYLE
350
17
0
DICTIONARY
5
D
100
AcDbDictionary
0
DICTIONARY
5
1A
330
C
100
AcDbDictionary
0
DICTIONARY
5
17
100
AcDbDictionary
0
ENDSEC
0
EOF
