0
SECTION
2
HEADER
9
$INSUNITS
70
1
9
$ACADVER
1
AC1014
9
$HANDSEED
5
FFFF
0
ENDSEC
0
SECTION
2
TABLES
0
TABLE
2
VPORT
5
8
100
AcDbSymbolTable
0
ENDTAB
0
TABLE
2
LTYPE
5
5
100
AcDbSymbolTable
0
LTYPE
5
14
100
AcDbSymbolTableRecord
100
AcDbLinetypeTableRecord
2
BYBLOCK
70
0
0
LTYPE
5
15
100
AcDbSymbolTableRecord
100
AcDbLinetypeTableRecord
2
BYLAYER
70
0
0
ENDTAB
0
TABLE
2
LAYER
5
2
100
AcDbSymbolTable
70
2
0
LAYER
5
50
100
AcDbSymbolTableRecord
100
AcDbLayerTableRecord
2
0
70
0
6
CONTINUOUS
0
ENDTAB
0
TABLE
2
STYLE
5
3
100
AcDbSymbolTable
70
1
0
STYLE
5
11
100
AcDbSymbolTableRecord
100
AcDbTextStyleTableRecord
2
STANDARD
70
0
0
ENDTAB
0
TABLE
2
VIEW
5
6
100
AcDbSymbolTable
70
0
0
ENDTAB
0
TABLE
2
UCS
5
7
100
AcDbSymbolTable
70
0
0
ENDTAB
0
TABLE
2
APPID
5
9
100
AcDbSymbolTable
70
2
0
APPID
5
12
100
AcDbSymbolTableRecord
100
AcDbRegAppTableRecord
2
ACAD
70
0
0
ENDTAB
0
TABLE
2
DIMSTYLE
5
A
100
AcDbSymbolTable
70
1
0
ENDTAB
0
TABLE
2
BLOCK_RECORD
5
1
100
AcDbSymbolTable
70
1
0
BLOCK_RECORD
5
1F
100
AcDbSymbolTableRecord
100
AcDbBlockTableRecord
2
*MODEL_SPACE
0
BLOCK_RECORD
5
1B
100
AcDbSymbolTableRecord
100
AcDbBlockTableRecord
2
*PAPER_SPACE
0
ENDTAB
0
ENDSEC
0
SECTION
2
BLOCKS
0
BLOCK
5
20
100
AcDbEntity
100
AcDbBlockBegin
2
*MODEL_SPACE
0
ENDBLK
5
21
100
AcDbEntity
100
AcDbBlockEnd
0
BLOCK
5
1C
100
AcDbEntity
100
AcDbBlockBegin
2
*PAPER_SPACE
0
ENDBLK
5
1D
100
AcDbEntity
100
AcDbBlockEnd
0
ENDSEC
0
SECTION
2
ENTITIES
0
LWPOLYLINE
5
100
100
AcDbEntity
8
OUTER_PROFILES
100
AcDbPolyline
90
12
70
1
43
0.0
10
0
20
6
10
0.31250000000000111
20
6
10
0.31250000000000011
20
5.683983081525553
42
2.3187293044088508
10
0.43750000000000017
20
5.683983081525553
10
0.43749999999999928
20
6
10
7.5625
20
6
10
7.5625
20
5.6839830815255548
42
2.3187293044088366
10
7.6875
20
5.6839830815255548
10
7.6875000000000009
20
6
10
7.9999999999999991
20
6
10
7.9999999999999991
20
0
10
0
20
0
0
CIRCLE
5
101
100
AcDbEntity
8
INTERIOR_PROFILES
100
AcDbCircle
10
-4.75
20
5.3749999999999991
30
0
40
0.062499999999999799
210
0
220
0
230
-1
0
CIRCLE
5
102
100
AcDbEntity
8
INTERIOR_PROFILES
100
AcDbCircle
10
-7.0010236220472439
20
0.25000000000000022
30
0
40
0.088499999999999482
210
0
220
0
230
-1
0
CIRCLE
5
103
100
AcDbEntity
8
INTERIOR_PROFILES
100
AcDbCircle
10
-0.99999999999999956
20
5.3750000000000009
30
0
40
0.062499999999999799
210
0
220
0
230
-1
0
CIRCLE
5
104
100
AcDbEntity
8
INTERIOR_PROFILES
100
AcDbCircle
10
-6.3750000000000009
20
3.1250000000000004
30
0
40
0.24999999999999989
210
0
220
0
230
-1
0
CIRCLE
5
105
100
AcDbEntity
8
INTERIOR_PROFILES
100
AcDbCircle
10
-4.3060236220472436
20
2.2479921259842524
30
0
40
0.060000000000000032
210
0
220
0
230
-1
0
CIRCLE
5
106
100
AcDbEntity
8
INTERIOR_PROFILES
100
AcDbCircle
10
-4.3060236220472436
20
4.0000000000000009
30
0
40
0.060000000000000032
210
0
220
0
230
-1
0
LWPOLYLINE
5
107
100
AcDbEntity
8
INTERIOR_PROFILES
100
AcDbPolyline
90
4
70
1
43
0.0
10
5.5625000000000009
20
2.6640625000000013
10
5.5625000000000009
20
3.5859375000000013
10
4.9375
20
3.5859375000000013
10
4.9375
20
2.6640625000000013
0
CIRCLE
5
108
100
AcDbEntity
8
INTERIOR_PROFILES
100
AcDbCircle
10
-7.375
20
3.1250000000000004
30
0
40
0.2499999999999992
210
0
220
0
230
-1
0
CIRCLE
5
109
100
AcDbEntity
8
INTERIOR_PROFILES
100
AcDbCircle
10
-5.2500000000000009
20
2.5625000000000013
30
0
40
0.060000000000000032
210
0
220
0
230
-1
0
CIRCLE
5
110
100
AcDbEntity
8
INTERIOR_PROFILES
100
AcDbCircle
10
-4.75
20
5.125
30
0
40
0.1249999999999996
210
0
220
0
230
-1
0
CIRCLE
5
111
100
AcDbEntity
8
INTERIOR_PROFILES
100
AcDbCircle
10
-2.1020078740157473
20
2.2479921259842524
30
0
40
0.060000000000000032
210
0
220
0
230
-1
0
CIRCLE
5
112
100
AcDbEntity
8
INTERIOR_PROFILES
100
AcDbCircle
10
-2.1020078740157473
20
4.0000000000000009
30
0
40
0.060000000000000032
210
0
220
0
230
-1
0
CIRCLE
5
113
100
AcDbEntity
8
INTERIOR_PROFILES
100
AcDbCircle
10
-0.49999999999999839
20
0.25000000000000022
30
0
40
0.08850000000000019
210
0
220
0
230
-1
0
CIRCLE
5
114
100
AcDbEntity
8
INTERIOR_PROFILES
100
AcDbCircle
10
-2.6670078740157472
20
0.25000000000000022
30
0
40
0.08850000000000019
210
0
220
0
230
-1
0
CIRCLE
5
115
100
AcDbEntity
8
INTERIOR_PROFILES
100
AcDbCircle
10
-3.2040157480314955
20
2.2479921259842524
30
0
40
0.060000000000000032
210
0
220
0
230
-1
0
CIRCLE
5
116
100
AcDbEntity
8
INTERIOR_PROFILES
100
AcDbCircle
10
-3.2040157480314955
20
4.0000000000000009
30
0
40
0.060000000000000032
210
0
220
0
230
-1
0
CIRCLE
5
117
100
AcDbEntity
8
INTERIOR_PROFILES
100
AcDbCircle
10
-2.7499999999999996
20
5.3750000000000009
30
0
40
0.062499999999999799
210
0
220
0
230
-1
0
CIRCLE
5
118
100
AcDbEntity
8
INTERIOR_PROFILES
100
AcDbCircle
10
-0.99999999999999956
20
2.2479921259842524
30
0
40
0.060000000000000032
210
0
220
0
230
-1
0
CIRCLE
5
119
100
AcDbEntity
8
INTERIOR_PROFILES
100
AcDbCircle
10
-6.5
20
5.125
30
0
40
0.1249999999999996
210
0
220
0
230
-1
0
CIRCLE
5
120
100
AcDbEntity
8
INTERIOR_PROFILES
100
AcDbCircle
10
-0.99999999999999956
20
4.0000000000000009
30
0
40
0.060000000000000032
210
0
220
0
230
-1
0
CIRCLE
5
121
100
AcDbEntity
8
INTERIOR_PROFILES
100
AcDbCircle
10
-2.7499999999999996
20
5.125
30
0
40
0.12499999999999994
210
0
220
0
230
-1
0
CIRCLE
5
122
100
AcDbEntity
8
INTERIOR_PROFILES
100
AcDbCircle
10
-0.99999999999999956
20
5.125
30
0
40
0.12499999999999994
210
0
220
0
230
-1
0
CIRCLE
5
123
100
AcDbEntity
8
INTERIOR_PROFILES
100
AcDbCircle
10
-4.8340157480314954
20
0.25000000000000022
30
0
40
0.08850000000000019
210
0
220
0
230
-1
0
CIRCLE
5
124
100
AcDbEntity
8
INTERIOR_PROFILES
100
AcDbCircle
10
-6.5
20
5.3749999999999991
30
0
40
0.0625000000000005
210
0
220
0
230
-1
0
CIRCLE
5
125
100
AcDbEntity
8
INTERIOR_PROFILES
100
AcDbCircle
10
-5.2500000000000009
20
3.6875000000000013
30
0
40
0.060000000000000032
210
0
220
0
230
-1
0
LINE
5
126
100
AcDbEntity
8
BEND
100
AcDbLine
10
0
20
1.7852895102777744
30
-2.8748872201245887e-17
11
7.9999999999999991
21
1.7852895102777744
31
4.8527368677473655e-33
0
LINE
5
127
100
AcDbEntity
8
BEND_EXTENT
100
AcDbLine
10
0
20
1.8205790205555483
30
0
11
7.9999999999999991
21
1.8205790205555485
31
0
0
LINE
5
128
100
AcDbEntity
8
BEND_EXTENT
100
AcDbLine
10
0
20
1.75
30
0
11
7.9999999999999991
21
1.7500000000000002
31
0
0
ENDSEC
0
SECTION
2
OBJECTS
0
DICTIONARY
5
C
100
AcDbDictionary
3
ACAD_GROUP
350
D
3
ACAD_MLINESTYLE
350
17
0
DICTIONARY
5
D
100
AcDbDictionary
0
DICTIONARY
5
1A
330
C
100
AcDbDictionary
0
DICTIONARY
5
17
100
AcDbDictionary
0
ENDSEC
0
EOF
