<?xml version="1.0" encoding="UTF-8" standalone="no"?>
<!DOCTYPE svg PUBLIC "-//W3C//DTD SVG 1.1//EN"
 "http://www.w3.org/Graphics/SVG/1.1/DTD/svg11.dtd">
<!-- Generated by graphviz version 7.1.0 (20230121.1956)
 -->
<!-- Pages: 1 -->
<svg width="1193pt" height="752pt"
 viewBox="0.00 0.00 1193.00 751.50" xmlns="http://www.w3.org/2000/svg" xmlns:xlink="http://www.w3.org/1999/xlink">
<g id="graph0" class="graph" transform="scale(1 1) rotate(0) translate(4 747.5)">
<polygon fill="#ffffff" stroke="none" points="-4,4 -4,-747.5 1189,-747.5 1189,4 -4,4"/>
<!-- Asteroids -->
<g id="node1" class="node">
<title>Asteroids</title>
<polygon fill="#ffffff" stroke="black" points="184,-743.5 0,-743.5 0,-145.5 184,-145.5 184,-743.5"/>
<polygon fill="none" stroke="black" points="0,-720.5 0,-743.5 184,-743.5 184,-720.5 0,-720.5"/>
<text text-anchor="start" x="63.5" y="-728.3" font-family="arial" font-size="14.00">Asteroids</text>
<polygon fill="none" stroke="black" points="0,-697.5 0,-720.5 99,-720.5 99,-697.5 0,-697.5"/>
<text text-anchor="start" x="4" y="-705.3" font-family="arial" font-size="14.00">TE 1&#45;640515&#45;0</text>
<polygon fill="none" stroke="black" points="99,-697.5 99,-720.5 138,-720.5 138,-697.5 99,-697.5"/>
<text text-anchor="start" x="103" y="-705.3" font-family="arial" font-size="14.00">male</text>
<polygon fill="none" stroke="black" points="138,-697.5 138,-720.5 184,-720.5 184,-697.5 138,-697.5"/>
<text text-anchor="start" x="142" y="-705.3" font-family="arial" font-size="14.00">24&#45;pin</text>
<polygon fill="none" stroke="black" points="0,-674.5 0,-697.5 160,-697.5 160,-674.5 0,-674.5"/>
<text text-anchor="start" x="41.5" y="-682.3" font-family="arial" font-size="14.00">Left Coin Sw</text>
<polygon fill="none" stroke="black" points="160,-674.5 160,-697.5 184,-697.5 184,-674.5 160,-674.5"/>
<text text-anchor="start" x="168" y="-682.3" font-family="arial" font-size="14.00">1</text>
<polygon fill="none" stroke="black" points="0,-651.5 0,-674.5 160,-674.5 160,-651.5 0,-651.5"/>
<text text-anchor="start" x="32.5" y="-659.3" font-family="arial" font-size="14.00">Center Coin Sw</text>
<polygon fill="none" stroke="black" points="160,-651.5 160,-674.5 184,-674.5 184,-651.5 160,-651.5"/>
<text text-anchor="start" x="168" y="-659.3" font-family="arial" font-size="14.00">2</text>
<polygon fill="none" stroke="black" points="0,-628.5 0,-651.5 160,-651.5 160,-628.5 0,-628.5"/>
<text text-anchor="start" x="37" y="-636.3" font-family="arial" font-size="14.00">Right Coin Sw</text>
<polygon fill="none" stroke="black" points="160,-628.5 160,-651.5 184,-651.5 184,-628.5 160,-628.5"/>
<text text-anchor="start" x="168" y="-636.3" font-family="arial" font-size="14.00">3</text>
<polygon fill="none" stroke="black" points="0,-605.5 0,-628.5 160,-628.5 160,-605.5 0,-605.5"/>
<text text-anchor="start" x="45.5" y="-613.3" font-family="arial" font-size="14.00">Test Switch</text>
<polygon fill="none" stroke="black" points="160,-605.5 160,-628.5 184,-628.5 184,-605.5 160,-605.5"/>
<text text-anchor="start" x="168" y="-613.3" font-family="arial" font-size="14.00">4</text>
<polygon fill="none" stroke="black" points="0,-582.5 0,-605.5 160,-605.5 160,-582.5 0,-582.5"/>
<text text-anchor="start" x="42" y="-590.3" font-family="arial" font-size="14.00">Slam Switch</text>
<polygon fill="none" stroke="black" points="160,-582.5 160,-605.5 184,-605.5 184,-582.5 160,-582.5"/>
<text text-anchor="start" x="168" y="-590.3" font-family="arial" font-size="14.00">5</text>
<polygon fill="none" stroke="black" points="0,-559.5 0,-582.5 160,-582.5 160,-559.5 0,-559.5"/>
<text text-anchor="start" x="51" y="-567.3" font-family="arial" font-size="14.00">SW GND</text>
<polygon fill="none" stroke="black" points="160,-559.5 160,-582.5 184,-582.5 184,-559.5 160,-559.5"/>
<text text-anchor="start" x="168" y="-567.3" font-family="arial" font-size="14.00">6</text>
<polygon fill="none" stroke="black" points="0,-536.5 0,-559.5 160,-559.5 160,-536.5 0,-536.5"/>
<text text-anchor="start" x="52" y="-544.3" font-family="arial" font-size="14.00">+10V DC</text>
<polygon fill="none" stroke="black" points="160,-536.5 160,-559.5 184,-559.5 184,-536.5 160,-536.5"/>
<text text-anchor="start" x="168" y="-544.3" font-family="arial" font-size="14.00">7</text>
<polygon fill="none" stroke="black" points="0,-513.5 0,-536.5 160,-536.5 160,-513.5 0,-513.5"/>
<text text-anchor="start" x="13.5" y="-521.3" font-family="arial" font-size="14.00">Left Coin Lockout Coil</text>
<polygon fill="none" stroke="black" points="160,-513.5 160,-536.5 184,-536.5 184,-513.5 160,-513.5"/>
<text text-anchor="start" x="168" y="-521.3" font-family="arial" font-size="14.00">8</text>
<polygon fill="none" stroke="black" points="0,-490.5 0,-513.5 160,-513.5 160,-490.5 0,-490.5"/>
<text text-anchor="start" x="4.5" y="-498.3" font-family="arial" font-size="14.00">Center Coin Lockout Coil</text>
<polygon fill="none" stroke="black" points="160,-490.5 160,-513.5 184,-513.5 184,-490.5 160,-490.5"/>
<text text-anchor="start" x="168" y="-498.3" font-family="arial" font-size="14.00">9</text>
<polygon fill="none" stroke="black" points="0,-467.5 0,-490.5 160,-490.5 160,-467.5 0,-467.5"/>
<text text-anchor="start" x="9" y="-475.3" font-family="arial" font-size="14.00">Right Coin Lockout Coil</text>
<polygon fill="none" stroke="black" points="160,-467.5 160,-490.5 184,-490.5 184,-467.5 160,-467.5"/>
<text text-anchor="start" x="164" y="-475.3" font-family="arial" font-size="14.00">10</text>
<polygon fill="none" stroke="black" points="0,-444.5 0,-467.5 160,-467.5 160,-444.5 0,-444.5"/>
<text text-anchor="start" x="47" y="-452.3" font-family="arial" font-size="14.00">(Not Used)</text>
<polygon fill="none" stroke="black" points="160,-444.5 160,-467.5 184,-467.5 184,-444.5 160,-444.5"/>
<text text-anchor="start" x="164.5" y="-452.3" font-family="arial" font-size="14.00">11</text>
<polygon fill="none" stroke="black" points="0,-421.5 0,-444.5 160,-444.5 160,-421.5 0,-421.5"/>
<text text-anchor="start" x="47" y="-429.3" font-family="arial" font-size="14.00">(Not Used)</text>
<polygon fill="none" stroke="black" points="160,-421.5 160,-444.5 184,-444.5 184,-421.5 160,-421.5"/>
<text text-anchor="start" x="164" y="-429.3" font-family="arial" font-size="14.00">12</text>
<polygon fill="none" stroke="black" points="0,-398.5 0,-421.5 160,-421.5 160,-398.5 0,-398.5"/>
<text text-anchor="start" x="28.5" y="-406.3" font-family="arial" font-size="14.00">Right Coin Meter</text>
<polygon fill="none" stroke="black" points="160,-398.5 160,-421.5 184,-421.5 184,-398.5 160,-398.5"/>
<text text-anchor="start" x="164" y="-406.3" font-family="arial" font-size="14.00">13</text>
<polygon fill="none" stroke="black" points="0,-375.5 0,-398.5 160,-398.5 160,-375.5 0,-375.5"/>
<text text-anchor="start" x="52" y="-383.3" font-family="arial" font-size="14.00">+10V DC</text>
<polygon fill="none" stroke="black" points="160,-375.5 160,-398.5 184,-398.5 184,-375.5 160,-375.5"/>
<text text-anchor="start" x="164" y="-383.3" font-family="arial" font-size="14.00">14</text>
<polygon fill="none" stroke="black" points="0,-352.5 0,-375.5 160,-375.5 160,-352.5 0,-352.5"/>
<text text-anchor="start" x="24" y="-360.3" font-family="arial" font-size="14.00">Center Coin Meter</text>
<polygon fill="none" stroke="black" points="160,-352.5 160,-375.5 184,-375.5 184,-352.5 160,-352.5"/>
<text text-anchor="start" x="164" y="-360.3" font-family="arial" font-size="14.00">15</text>
<polygon fill="none" stroke="black" points="0,-329.5 0,-352.5 160,-352.5 160,-329.5 0,-329.5"/>
<text text-anchor="start" x="52" y="-337.3" font-family="arial" font-size="14.00">+10V DC</text>
<polygon fill="none" stroke="black" points="160,-329.5 160,-352.5 184,-352.5 184,-329.5 160,-329.5"/>
<text text-anchor="start" x="164" y="-337.3" font-family="arial" font-size="14.00">16</text>
<polygon fill="none" stroke="black" points="0,-306.5 0,-329.5 160,-329.5 160,-306.5 0,-306.5"/>
<text text-anchor="start" x="33" y="-314.3" font-family="arial" font-size="14.00">Left Coin Meter</text>
<polygon fill="none" stroke="black" points="160,-306.5 160,-329.5 184,-329.5 184,-306.5 160,-306.5"/>
<text text-anchor="start" x="164" y="-314.3" font-family="arial" font-size="14.00">17</text>
<polygon fill="none" stroke="black" points="0,-283.5 0,-306.5 160,-306.5 160,-283.5 0,-283.5"/>
<text text-anchor="start" x="52" y="-291.3" font-family="arial" font-size="14.00">+10V DC</text>
<polygon fill="none" stroke="black" points="160,-283.5 160,-306.5 184,-306.5 184,-283.5 160,-283.5"/>
<text text-anchor="start" x="164" y="-291.3" font-family="arial" font-size="14.00">18</text>
<polygon fill="none" stroke="black" points="0,-260.5 0,-283.5 160,-283.5 160,-260.5 0,-260.5"/>
<text text-anchor="start" x="57" y="-268.3" font-family="arial" font-size="14.00">6.3VAC</text>
<polygon fill="none" stroke="black" points="160,-260.5 160,-283.5 184,-283.5 184,-260.5 160,-260.5"/>
<text text-anchor="start" x="164" y="-268.3" font-family="arial" font-size="14.00">19</text>
<polygon fill="none" stroke="black" points="0,-237.5 0,-260.5 160,-260.5 160,-237.5 0,-237.5"/>
<text text-anchor="start" x="27" y="-245.3" font-family="arial" font-size="14.00">6.3VAC Common</text>
<polygon fill="none" stroke="black" points="160,-237.5 160,-260.5 184,-260.5 184,-237.5 160,-237.5"/>
<text text-anchor="start" x="164" y="-245.3" font-family="arial" font-size="14.00">20</text>
<polygon fill="none" stroke="black" points="0,-214.5 0,-237.5 160,-237.5 160,-214.5 0,-214.5"/>
<text text-anchor="start" x="77.5" y="-222.3" font-family="arial" font-size="14.00">&#45;</text>
<polygon fill="none" stroke="black" points="160,-214.5 160,-237.5 184,-237.5 184,-214.5 160,-214.5"/>
<text text-anchor="start" x="164" y="-222.3" font-family="arial" font-size="14.00">21</text>
<polygon fill="none" stroke="black" points="0,-191.5 0,-214.5 160,-214.5 160,-191.5 0,-191.5"/>
<text text-anchor="start" x="77.5" y="-199.3" font-family="arial" font-size="14.00">&#45;</text>
<polygon fill="none" stroke="black" points="160,-191.5 160,-214.5 184,-214.5 184,-191.5 160,-191.5"/>
<text text-anchor="start" x="164" y="-199.3" font-family="arial" font-size="14.00">22</text>
<polygon fill="none" stroke="black" points="0,-168.5 0,-191.5 160,-191.5 160,-168.5 0,-168.5"/>
<text text-anchor="start" x="38.5" y="-176.3" font-family="arial" font-size="14.00">Chassis GND</text>
<polygon fill="none" stroke="black" points="160,-168.5 160,-191.5 184,-191.5 184,-168.5 160,-168.5"/>
<text text-anchor="start" x="164" y="-176.3" font-family="arial" font-size="14.00">23</text>
<polygon fill="none" stroke="black" points="0,-145.5 0,-168.5 160,-168.5 160,-145.5 0,-145.5"/>
<text text-anchor="start" x="38.5" y="-153.3" font-family="arial" font-size="14.00">Chassis GND</text>
<polygon fill="none" stroke="black" points="160,-145.5 160,-168.5 184,-168.5 184,-145.5 160,-145.5"/>
<text text-anchor="start" x="164" y="-153.3" font-family="arial" font-size="14.00">24</text>
</g>
<!-- Main Harness -->
<g id="node4" class="node">
<title>Main Harness</title>
<polygon fill="#ffffff" stroke="black" points="815,-492 335,-492 335,-133 815,-133 815,-492"/>
<polygon fill="none" stroke="black" points="335,-468.5 335,-491.5 815,-491.5 815,-468.5 335,-468.5"/>
<text text-anchor="start" x="532.5" y="-476.3" font-family="arial" font-size="14.00">Main Harness</text>
<polygon fill="none" stroke="black" points="335,-445.5 335,-468.5 562,-468.5 562,-445.5 335,-445.5"/>
<text text-anchor="start" x="437.5" y="-453.3" font-family="arial" font-size="14.00">11x</text>
<polygon fill="none" stroke="black" points="562,-445.5 562,-468.5 815,-468.5 815,-445.5 562,-445.5"/>
<text text-anchor="start" x="664" y="-453.3" font-family="arial" font-size="14.00">11.0 cm</text>
<text text-anchor="start" x="427.5" y="-432.3" font-family="arial" font-size="14.00"> </text>
<text text-anchor="start" x="367" y="-413.3" font-family="arial" font-size="14.00">Asteroids:19:6.3VAC</text>
<text text-anchor="start" x="529" y="-413.3" font-family="arial" font-size="14.00"> &#160;&#160;&#160;&#160;1:BG &#160;&#160;&#160;</text>
<text text-anchor="start" x="626" y="-413.3" font-family="arial" font-size="14.00">Lunar Lander:1:6.3 VAC HI</text>
<polygon fill="#000000" stroke="none" points="335,-405.5 335,-407.5 815,-407.5 815,-405.5 335,-405.5"/>
<polygon fill="#ceb673" stroke="none" points="335,-403.5 335,-405.5 815,-405.5 815,-403.5 335,-403.5"/>
<polygon fill="#000000" stroke="none" points="335,-401.5 335,-403.5 815,-403.5 815,-401.5 335,-401.5"/>
<text text-anchor="start" x="337" y="-388.3" font-family="arial" font-size="14.00">Asteroids:20:6.3VAC Common</text>
<text text-anchor="start" x="529" y="-388.3" font-family="arial" font-size="14.00"> &#160;&#160;&#160;&#160;2:BG &#160;&#160;&#160;</text>
<text text-anchor="start" x="623.5" y="-388.3" font-family="arial" font-size="14.00">Lunar Lander:2:6.3 VAC LO</text>
<polygon fill="#000000" stroke="none" points="335,-380.5 335,-382.5 815,-382.5 815,-380.5 335,-380.5"/>
<polygon fill="#ceb673" stroke="none" points="335,-378.5 335,-380.5 815,-380.5 815,-378.5 335,-378.5"/>
<polygon fill="#000000" stroke="none" points="335,-376.5 335,-378.5 815,-378.5 815,-376.5 335,-376.5"/>
<text text-anchor="start" x="362" y="-363.3" font-family="arial" font-size="14.00">Asteroids:18:+10V DC</text>
<text text-anchor="start" x="527.5" y="-363.3" font-family="arial" font-size="14.00"> &#160;&#160;&#160;&#160;3:WH &#160;&#160;&#160;</text>
<text text-anchor="start" x="610" y="-363.3" font-family="arial" font-size="14.00">Lunar Lander:3:10.3 VDC Unreg</text>
<polygon fill="#000000" stroke="none" points="335,-355.5 335,-357.5 815,-357.5 815,-355.5 335,-355.5"/>
<polygon fill="#ffffff" stroke="none" points="335,-353.5 335,-355.5 815,-355.5 815,-353.5 335,-353.5"/>
<polygon fill="#000000" stroke="none" points="335,-351.5 335,-353.5 815,-353.5 815,-351.5 335,-351.5"/>
<text text-anchor="start" x="343.5" y="-338.3" font-family="arial" font-size="14.00">Asteroids:17:Left Coin Meter</text>
<text text-anchor="start" x="530" y="-338.3" font-family="arial" font-size="14.00"> &#160;&#160;&#160;&#160;4:PK &#160;&#160;&#160;</text>
<text text-anchor="start" x="620" y="-338.3" font-family="arial" font-size="14.00">Lunar Lander:4:Coin Counter</text>
<polygon fill="#000000" stroke="none" points="335,-330.5 335,-332.5 815,-332.5 815,-330.5 335,-330.5"/>
<polygon fill="#ff66cc" stroke="none" points="335,-328.5 335,-330.5 815,-330.5 815,-328.5 335,-328.5"/>
<polygon fill="#000000" stroke="none" points="335,-326.5 335,-328.5 815,-328.5 815,-326.5 335,-326.5"/>
<text text-anchor="start" x="365" y="-313.3" font-family="arial" font-size="14.00">Asteroids:6:SW GND</text>
<text text-anchor="start" x="530" y="-313.3" font-family="arial" font-size="14.00"> &#160;&#160;&#160;&#160;5:BK &#160;&#160;&#160;</text>
<text text-anchor="start" x="644" y="-313.3" font-family="arial" font-size="14.00">Lunar Lander:5:GND</text>
<polygon fill="#000000" stroke="none" points="335,-305.5 335,-307.5 815,-307.5 815,-305.5 335,-305.5"/>
<polygon fill="#000000" stroke="none" points="335,-303.5 335,-305.5 815,-305.5 815,-303.5 335,-303.5"/>
<polygon fill="#000000" stroke="none" points="335,-301.5 335,-303.5 815,-303.5 815,-301.5 335,-301.5"/>
<text text-anchor="start" x="351" y="-288.3" font-family="arial" font-size="14.00">Asteroids:3:Right Coin Sw</text>
<text text-anchor="start" x="528" y="-288.3" font-family="arial" font-size="14.00"> &#160;&#160;&#160;&#160;6:OG &#160;&#160;&#160;</text>
<text text-anchor="start" x="602" y="-288.3" font-family="arial" font-size="14.00">Lunar Lander:6:Coin 1 (Right) N.O.</text>
<polygon fill="#000000" stroke="none" points="335,-280.5 335,-282.5 815,-282.5 815,-280.5 335,-280.5"/>
<polygon fill="#ff8000" stroke="none" points="335,-278.5 335,-280.5 815,-280.5 815,-278.5 335,-278.5"/>
<polygon fill="#000000" stroke="none" points="335,-276.5 335,-278.5 815,-278.5 815,-276.5 335,-276.5"/>
<text text-anchor="start" x="346.5" y="-263.3" font-family="arial" font-size="14.00">Asteroids:2:Center Coin Sw</text>
<text text-anchor="start" x="530" y="-263.3" font-family="arial" font-size="14.00"> &#160;&#160;&#160;&#160;7:BN &#160;&#160;&#160;</text>
<text text-anchor="start" x="606.5" y="-263.3" font-family="arial" font-size="14.00">Lunar Lander:9:Coin 2 (Left) N.O.</text>
<polygon fill="#000000" stroke="none" points="335,-255.5 335,-257.5 815,-257.5 815,-255.5 335,-255.5"/>
<polygon fill="#895956" stroke="none" points="335,-253.5 335,-255.5 815,-255.5 815,-253.5 335,-253.5"/>
<polygon fill="#000000" stroke="none" points="335,-251.5 335,-253.5 815,-253.5 815,-251.5 335,-251.5"/>
<text text-anchor="start" x="356" y="-238.3" font-family="arial" font-size="14.00">Asteroids:5:Slam Switch</text>
<text text-anchor="start" x="529" y="-238.3" font-family="arial" font-size="14.00"> &#160;&#160;&#160;&#160;8:GY &#160;&#160;&#160;</text>
<text text-anchor="start" x="640" y="-238.3" font-family="arial" font-size="14.00">Lunar Lander:12:Slam</text>
<polygon fill="#000000" stroke="none" points="335,-230.5 335,-232.5 815,-232.5 815,-230.5 335,-230.5"/>
<polygon fill="#999999" stroke="none" points="335,-228.5 335,-230.5 815,-230.5 815,-228.5 335,-228.5"/>
<polygon fill="#000000" stroke="none" points="335,-226.5 335,-228.5 815,-228.5 815,-226.5 335,-226.5"/>
<text text-anchor="start" x="366" y="-213.3" font-family="arial" font-size="14.00">Asteroids:7:+10V DC</text>
<text text-anchor="start" x="527.5" y="-213.3" font-family="arial" font-size="14.00"> &#160;&#160;&#160;&#160;9:WH &#160;&#160;&#160;</text>
<text text-anchor="start" x="606.5" y="-213.3" font-family="arial" font-size="14.00">Lunar Lander:13:10.3 VDC Unreg</text>
<polygon fill="#000000" stroke="none" points="335,-205.5 335,-207.5 815,-207.5 815,-205.5 335,-205.5"/>
<polygon fill="#ffffff" stroke="none" points="335,-203.5 335,-205.5 815,-205.5 815,-203.5 335,-203.5"/>
<polygon fill="#000000" stroke="none" points="335,-201.5 335,-203.5 815,-203.5 815,-201.5 335,-201.5"/>
<text text-anchor="start" x="348.5" y="-188.3" font-family="arial" font-size="14.00">Asteroids:23:Chassis GND</text>
<text text-anchor="start" x="526" y="-188.3" font-family="arial" font-size="14.00"> &#160;&#160;&#160;&#160;10:OL &#160;&#160;&#160;</text>
<text text-anchor="start" x="614.5" y="-188.3" font-family="arial" font-size="14.00">Lunar Lander:14:Chassis GND</text>
<polygon fill="#000000" stroke="none" points="335,-180.5 335,-182.5 815,-182.5 815,-180.5 335,-180.5"/>
<polygon fill="#708000" stroke="none" points="335,-178.5 335,-180.5 815,-180.5 815,-178.5 335,-178.5"/>
<polygon fill="#000000" stroke="none" points="335,-176.5 335,-178.5 815,-178.5 815,-176.5 335,-176.5"/>
<text text-anchor="start" x="348.5" y="-163.3" font-family="arial" font-size="14.00">Asteroids:24:Chassis GND</text>
<text text-anchor="start" x="526.5" y="-163.3" font-family="arial" font-size="14.00"> &#160;&#160;&#160;&#160;11:OL &#160;&#160;&#160;</text>
<text text-anchor="start" x="614.5" y="-163.3" font-family="arial" font-size="14.00">Lunar Lander:14:Chassis GND</text>
<polygon fill="#000000" stroke="none" points="335,-155.5 335,-157.5 815,-157.5 815,-155.5 335,-155.5"/>
<polygon fill="#708000" stroke="none" points="335,-153.5 335,-155.5 815,-155.5 815,-153.5 335,-153.5"/>
<polygon fill="#000000" stroke="none" points="335,-151.5 335,-153.5 815,-153.5 815,-151.5 335,-151.5"/>
<text text-anchor="start" x="427.5" y="-138.3" font-family="arial" font-size="14.00"> </text>
</g>
<!-- Asteroids&#45;&#45;Main Harness -->
<g id="edge1" class="edge">
<title>Asteroids:e&#45;&#45;Main Harness:w</title>
<path fill="none" stroke="#000000" stroke-width="2" d="M184,-269.5C275.06,-271.91 246.86,-404.91 334,-402.5"/>
<path fill="none" stroke="#ceb673" stroke-width="2" d="M184,-271.5C273.1,-271.5 244.9,-404.5 334,-404.5"/>
<path fill="none" stroke="#000000" stroke-width="2" d="M184,-273.5C271.14,-271.09 242.94,-404.09 334,-406.5"/>
</g>
<!-- Asteroids&#45;&#45;Main Harness -->
<g id="edge3" class="edge">
<title>Asteroids:e&#45;&#45;Main Harness:w</title>
<path fill="none" stroke="#000000" stroke-width="2" d="M184,-246.5C274.47,-248.9 247.45,-379.9 334,-377.5"/>
<path fill="none" stroke="#ceb673" stroke-width="2" d="M184,-248.5C272.51,-248.5 245.49,-379.5 334,-379.5"/>
<path fill="none" stroke="#000000" stroke-width="2" d="M184,-250.5C270.55,-248.1 243.53,-379.1 334,-381.5"/>
</g>
<!-- Asteroids&#45;&#45;Main Harness -->
<g id="edge5" class="edge">
<title>Asteroids:e&#45;&#45;Main Harness:w</title>
<path fill="none" stroke="#000000" stroke-width="2" d="M184,-292.5C257.79,-294.29 264.19,-354.29 334,-352.5"/>
<path fill="none" stroke="#ffffff" stroke-width="2" d="M184,-294.5C255.8,-294.5 262.2,-354.5 334,-354.5"/>
<path fill="none" stroke="#000000" stroke-width="2" d="M184,-296.5C253.81,-294.71 260.21,-354.71 334,-356.5"/>
</g>
<!-- Asteroids&#45;&#45;Main Harness -->
<g id="edge7" class="edge">
<title>Asteroids:e&#45;&#45;Main Harness:w</title>
<path fill="none" stroke="#000000" stroke-width="2" d="M184,-315.5C252.07,-315.89 268.31,-327.89 334,-327.5"/>
<path fill="none" stroke="#ff66cc" stroke-width="2" d="M184,-317.5C250.88,-317.5 267.12,-329.5 334,-329.5"/>
<path fill="none" stroke="#000000" stroke-width="2" d="M184,-319.5C249.69,-319.11 265.93,-331.11 334,-331.5"/>
</g>
<!-- Asteroids&#45;&#45;Main Harness -->
<g id="edge9" class="edge">
<title>Asteroids:e&#45;&#45;Main Harness:w</title>
<path fill="none" stroke="#000000" stroke-width="2" d="M184,-569.5C318.29,-572.33 196.07,-305.33 334,-302.5"/>
<path fill="none" stroke="#000000" stroke-width="2" d="M184,-571.5C320.11,-571.5 197.89,-304.5 334,-304.5"/>
<path fill="none" stroke="#000000" stroke-width="2" d="M184,-573.5C321.93,-570.67 199.71,-303.67 334,-306.5"/>
</g>
<!-- Asteroids&#45;&#45;Main Harness -->
<g id="edge11" class="edge">
<title>Asteroids:e&#45;&#45;Main Harness:w</title>
<path fill="none" stroke="#000000" stroke-width="2" d="M184,-638.5C355.99,-641.46 158.5,-280.46 334,-277.5"/>
<path fill="none" stroke="#ff8000" stroke-width="2" d="M184,-640.5C357.74,-640.5 160.26,-279.5 334,-279.5"/>
<path fill="none" stroke="#000000" stroke-width="2" d="M184,-642.5C359.5,-639.54 162.01,-278.54 334,-281.5"/>
</g>
<!-- Asteroids&#45;&#45;Main Harness -->
<g id="edge13" class="edge">
<title>Asteroids:e&#45;&#45;Main Harness:w</title>
<path fill="none" stroke="#000000" stroke-width="2" d="M184,-661.5C375.89,-664.5 138.65,-255.5 334,-252.5"/>
<path fill="none" stroke="#895956" stroke-width="2" d="M184,-663.5C377.62,-663.5 140.38,-254.5 334,-254.5"/>
<path fill="none" stroke="#000000" stroke-width="2" d="M184,-665.5C379.35,-662.5 142.11,-253.5 334,-256.5"/>
</g>
<!-- Asteroids&#45;&#45;Main Harness -->
<g id="edge15" class="edge">
<title>Asteroids:e&#45;&#45;Main Harness:w</title>
<path fill="none" stroke="#000000" stroke-width="2" d="M184,-592.5C357.63,-595.46 156.86,-230.46 334,-227.5"/>
<path fill="none" stroke="#999999" stroke-width="2" d="M184,-594.5C359.39,-594.5 158.61,-229.5 334,-229.5"/>
<path fill="none" stroke="#000000" stroke-width="2" d="M184,-596.5C361.14,-593.54 160.37,-228.54 334,-231.5"/>
</g>
<!-- Asteroids&#45;&#45;Main Harness -->
<g id="edge17" class="edge">
<title>Asteroids:e&#45;&#45;Main Harness:w</title>
<path fill="none" stroke="#000000" stroke-width="2" d="M184,-546.5C349.03,-549.44 165.44,-205.44 334,-202.5"/>
<path fill="none" stroke="#ffffff" stroke-width="2" d="M184,-548.5C350.79,-548.5 167.21,-204.5 334,-204.5"/>
<path fill="none" stroke="#000000" stroke-width="2" d="M184,-550.5C352.56,-547.56 168.97,-203.56 334,-206.5"/>
</g>
<!-- Asteroids&#45;&#45;Main Harness -->
<g id="edge19" class="edge">
<title>Asteroids:e&#45;&#45;Main Harness:w</title>
<path fill="none" stroke="#000000" stroke-width="2" d="M184,-177.5C250.67,-177.5 267.33,-177.5 334,-177.5"/>
<path fill="none" stroke="#708000" stroke-width="2" d="M184,-179.5C250.67,-179.5 267.33,-179.5 334,-179.5"/>
<path fill="none" stroke="#000000" stroke-width="2" d="M184,-181.5C250.67,-181.5 267.33,-181.5 334,-181.5"/>
</g>
<!-- Asteroids&#45;&#45;Main Harness -->
<g id="edge21" class="edge">
<title>Asteroids:e&#45;&#45;Main Harness:w</title>
<path fill="none" stroke="#000000" stroke-width="2" d="M184,-154.5C250.43,-154.51 267.09,-152.51 334,-152.5"/>
<path fill="none" stroke="#708000" stroke-width="2" d="M184,-156.5C250.67,-156.5 267.33,-154.5 334,-154.5"/>
<path fill="none" stroke="#000000" stroke-width="2" d="M184,-158.5C250.91,-158.49 267.57,-156.49 334,-156.5"/>
</g>
<!-- Right Coin Harness -->
<g id="node5" class="node">
<title>Right Coin Harness</title>
<polygon fill="#ffffff" stroke="black" points="822,-650.5 328,-650.5 328,-516.5 822,-516.5 822,-650.5"/>
<polygon fill="none" stroke="black" points="328,-627.5 328,-650.5 822,-650.5 822,-627.5 328,-627.5"/>
<text text-anchor="start" x="516" y="-635.3" font-family="arial" font-size="14.00">Right Coin Harness</text>
<polygon fill="none" stroke="black" points="328,-604.5 328,-627.5 558,-627.5 558,-604.5 328,-604.5"/>
<text text-anchor="start" x="435.5" y="-612.3" font-family="arial" font-size="14.00">2x</text>
<polygon fill="none" stroke="black" points="558,-604.5 558,-627.5 822,-627.5 822,-604.5 558,-604.5"/>
<text text-anchor="start" x="665.5" y="-612.3" font-family="arial" font-size="14.00">13.0 cm</text>
<text text-anchor="start" x="418.5" y="-591.3" font-family="arial" font-size="14.00"> </text>
<text text-anchor="start" x="353" y="-572.3" font-family="arial" font-size="14.00">Asteroids:14:+10V DC</text>
<text text-anchor="start" x="515" y="-572.3" font-family="arial" font-size="14.00"> &#160;&#160;&#160;&#160;1:WH &#160;&#160;&#160;</text>
<text text-anchor="start" x="611" y="-572.3" font-family="arial" font-size="14.00">Right Coin Counter:1:+10V DC</text>
<polygon fill="#000000" stroke="none" points="328,-564.5 328,-566.5 822,-566.5 822,-564.5 328,-564.5"/>
<polygon fill="#ffffff" stroke="none" points="328,-562.5 328,-564.5 822,-564.5 822,-562.5 328,-562.5"/>
<polygon fill="#000000" stroke="none" points="328,-560.5 328,-562.5 822,-562.5 822,-560.5 328,-560.5"/>
<text text-anchor="start" x="330" y="-547.3" font-family="arial" font-size="14.00">Asteroids:13:Right Coin Meter</text>
<text text-anchor="start" x="517" y="-547.3" font-family="arial" font-size="14.00"> &#160;&#160;&#160;&#160;2:RD &#160;&#160;&#160;</text>
<text text-anchor="start" x="588" y="-547.3" font-family="arial" font-size="14.00">Right Coin Counter:3:Right Coin Meter</text>
<polygon fill="#000000" stroke="none" points="328,-539.5 328,-541.5 822,-541.5 822,-539.5 328,-539.5"/>
<polygon fill="#ff0000" stroke="none" points="328,-537.5 328,-539.5 822,-539.5 822,-537.5 328,-537.5"/>
<polygon fill="#000000" stroke="none" points="328,-535.5 328,-537.5 822,-537.5 822,-535.5 328,-535.5"/>
<text text-anchor="start" x="418.5" y="-522.3" font-family="arial" font-size="14.00"> </text>
</g>
<!-- Asteroids&#45;&#45;Right Coin Harness -->
<g id="edge23" class="edge">
<title>Asteroids:e&#45;&#45;Right Coin Harness:w</title>
<path fill="none" stroke="#000000" stroke-width="2" d="M184,-384.5C287.31,-387.13 228.49,-564.13 328,-561.5"/>
<path fill="none" stroke="#ffffff" stroke-width="2" d="M184,-386.5C285.41,-386.5 226.59,-563.5 328,-563.5"/>
<path fill="none" stroke="#000000" stroke-width="2" d="M184,-388.5C283.51,-385.87 224.69,-562.87 328,-565.5"/>
</g>
<!-- Asteroids&#45;&#45;Right Coin Harness -->
<g id="edge25" class="edge">
<title>Asteroids:e&#45;&#45;Right Coin Harness:w</title>
<path fill="none" stroke="#000000" stroke-width="2" d="M184,-407.5C271.88,-409.92 244.03,-538.92 328,-536.5"/>
<path fill="none" stroke="#ff0000" stroke-width="2" d="M184,-409.5C269.93,-409.5 242.07,-538.5 328,-538.5"/>
<path fill="none" stroke="#000000" stroke-width="2" d="M184,-411.5C267.97,-409.08 240.12,-538.08 328,-540.5"/>
</g>
<!-- Lunar Lander -->
<g id="node2" class="node">
<title>Lunar Lander</title>
<polygon fill="#ffffff" stroke="black" points="1185,-458 966,-458 966,-67 1185,-67 1185,-458"/>
<polygon fill="none" stroke="black" points="966.5,-434.5 966.5,-457.5 1185.5,-457.5 1185.5,-434.5 966.5,-434.5"/>
<text text-anchor="start" x="1035.5" y="-442.3" font-family="arial" font-size="14.00">Lunar Lander</text>
<polygon fill="none" stroke="black" points="966.5,-411.5 966.5,-434.5 1089.5,-434.5 1089.5,-411.5 966.5,-411.5"/>
<text text-anchor="start" x="970.5" y="-419.3" font-family="arial" font-size="14.00">Molex 0003091152</text>
<polygon fill="none" stroke="black" points="1089.5,-411.5 1089.5,-434.5 1139.5,-434.5 1139.5,-411.5 1089.5,-411.5"/>
<text text-anchor="start" x="1093.5" y="-419.3" font-family="arial" font-size="14.00">female</text>
<polygon fill="none" stroke="black" points="1139.5,-411.5 1139.5,-434.5 1185.5,-434.5 1185.5,-411.5 1139.5,-411.5"/>
<text text-anchor="start" x="1143.5" y="-419.3" font-family="arial" font-size="14.00">15&#45;pin</text>
<polygon fill="none" stroke="black" points="966.5,-388.5 966.5,-411.5 1026.5,-411.5 1026.5,-388.5 966.5,-388.5"/>
<text text-anchor="start" x="992.5" y="-396.3" font-family="arial" font-size="14.00">1</text>
<polygon fill="none" stroke="black" points="1026.5,-388.5 1026.5,-411.5 1185.5,-411.5 1185.5,-388.5 1026.5,-388.5"/>
<text text-anchor="start" x="1072.5" y="-396.3" font-family="arial" font-size="14.00">6.3 VAC HI</text>
<polygon fill="none" stroke="black" points="966.5,-365.5 966.5,-388.5 1026.5,-388.5 1026.5,-365.5 966.5,-365.5"/>
<text text-anchor="start" x="992.5" y="-373.3" font-family="arial" font-size="14.00">2</text>
<polygon fill="none" stroke="black" points="1026.5,-365.5 1026.5,-388.5 1185.5,-388.5 1185.5,-365.5 1026.5,-365.5"/>
<text text-anchor="start" x="1069.5" y="-373.3" font-family="arial" font-size="14.00">6.3 VAC LO</text>
<polygon fill="none" stroke="black" points="966.5,-342.5 966.5,-365.5 1026.5,-365.5 1026.5,-342.5 966.5,-342.5"/>
<text text-anchor="start" x="992.5" y="-350.3" font-family="arial" font-size="14.00">3</text>
<polygon fill="none" stroke="black" points="1026.5,-342.5 1026.5,-365.5 1185.5,-365.5 1185.5,-342.5 1026.5,-342.5"/>
<text text-anchor="start" x="1056" y="-350.3" font-family="arial" font-size="14.00">10.3 VDC Unreg</text>
<polygon fill="none" stroke="black" points="966.5,-319.5 966.5,-342.5 1026.5,-342.5 1026.5,-319.5 966.5,-319.5"/>
<text text-anchor="start" x="992.5" y="-327.3" font-family="arial" font-size="14.00">4</text>
<polygon fill="none" stroke="black" points="1026.5,-319.5 1026.5,-342.5 1185.5,-342.5 1185.5,-319.5 1026.5,-319.5"/>
<text text-anchor="start" x="1066" y="-327.3" font-family="arial" font-size="14.00">Coin Counter</text>
<polygon fill="none" stroke="black" points="966.5,-296.5 966.5,-319.5 1026.5,-319.5 1026.5,-296.5 966.5,-296.5"/>
<text text-anchor="start" x="992.5" y="-304.3" font-family="arial" font-size="14.00">5</text>
<polygon fill="none" stroke="black" points="1026.5,-296.5 1026.5,-319.5 1185.5,-319.5 1185.5,-296.5 1026.5,-296.5"/>
<text text-anchor="start" x="1090.5" y="-304.3" font-family="arial" font-size="14.00">GND</text>
<polygon fill="none" stroke="black" points="966.5,-273.5 966.5,-296.5 1026.5,-296.5 1026.5,-273.5 966.5,-273.5"/>
<text text-anchor="start" x="992.5" y="-281.3" font-family="arial" font-size="14.00">6</text>
<polygon fill="none" stroke="black" points="1026.5,-273.5 1026.5,-296.5 1185.5,-296.5 1185.5,-273.5 1026.5,-273.5"/>
<text text-anchor="start" x="1048" y="-281.3" font-family="arial" font-size="14.00">Coin 1 (Right) N.O.</text>
<polygon fill="none" stroke="black" points="966.5,-250.5 966.5,-273.5 1026.5,-273.5 1026.5,-250.5 966.5,-250.5"/>
<text text-anchor="start" x="992.5" y="-258.3" font-family="arial" font-size="14.00">7</text>
<polygon fill="none" stroke="black" points="1026.5,-250.5 1026.5,-273.5 1185.5,-273.5 1185.5,-250.5 1026.5,-250.5"/>
<text text-anchor="start" x="1103.5" y="-258.3" font-family="arial" font-size="14.00">&#45;</text>
<polygon fill="none" stroke="black" points="966.5,-227.5 966.5,-250.5 1026.5,-250.5 1026.5,-227.5 966.5,-227.5"/>
<text text-anchor="start" x="992.5" y="-235.3" font-family="arial" font-size="14.00">8</text>
<polygon fill="none" stroke="black" points="1026.5,-227.5 1026.5,-250.5 1185.5,-250.5 1185.5,-227.5 1026.5,-227.5"/>
<text text-anchor="start" x="1090.5" y="-235.3" font-family="arial" font-size="14.00">GND</text>
<polygon fill="none" stroke="black" points="966.5,-204.5 966.5,-227.5 1026.5,-227.5 1026.5,-204.5 966.5,-204.5"/>
<text text-anchor="start" x="992.5" y="-212.3" font-family="arial" font-size="14.00">9</text>
<polygon fill="none" stroke="black" points="1026.5,-204.5 1026.5,-227.5 1185.5,-227.5 1185.5,-204.5 1026.5,-204.5"/>
<text text-anchor="start" x="1052.5" y="-212.3" font-family="arial" font-size="14.00">Coin 2 (Left) N.O.</text>
<polygon fill="none" stroke="black" points="966.5,-181.5 966.5,-204.5 1026.5,-204.5 1026.5,-181.5 966.5,-181.5"/>
<text text-anchor="start" x="988.5" y="-189.3" font-family="arial" font-size="14.00">10</text>
<polygon fill="none" stroke="black" points="1026.5,-181.5 1026.5,-204.5 1185.5,-204.5 1185.5,-181.5 1026.5,-181.5"/>
<text text-anchor="start" x="1103.5" y="-189.3" font-family="arial" font-size="14.00">&#45;</text>
<polygon fill="none" stroke="black" points="966.5,-158.5 966.5,-181.5 1026.5,-181.5 1026.5,-158.5 966.5,-158.5"/>
<text text-anchor="start" x="989" y="-166.3" font-family="arial" font-size="14.00">11</text>
<polygon fill="none" stroke="black" points="1026.5,-158.5 1026.5,-181.5 1185.5,-181.5 1185.5,-158.5 1026.5,-158.5"/>
<text text-anchor="start" x="1090.5" y="-166.3" font-family="arial" font-size="14.00">GND</text>
<polygon fill="none" stroke="black" points="966.5,-135.5 966.5,-158.5 1026.5,-158.5 1026.5,-135.5 966.5,-135.5"/>
<text text-anchor="start" x="988.5" y="-143.3" font-family="arial" font-size="14.00">12</text>
<polygon fill="none" stroke="black" points="1026.5,-135.5 1026.5,-158.5 1185.5,-158.5 1185.5,-135.5 1026.5,-135.5"/>
<text text-anchor="start" x="1090" y="-143.3" font-family="arial" font-size="14.00">Slam</text>
<polygon fill="none" stroke="black" points="966.5,-112.5 966.5,-135.5 1026.5,-135.5 1026.5,-112.5 966.5,-112.5"/>
<text text-anchor="start" x="988.5" y="-120.3" font-family="arial" font-size="14.00">13</text>
<polygon fill="none" stroke="black" points="1026.5,-112.5 1026.5,-135.5 1185.5,-135.5 1185.5,-112.5 1026.5,-112.5"/>
<text text-anchor="start" x="1056" y="-120.3" font-family="arial" font-size="14.00">10.3 VDC Unreg</text>
<polygon fill="none" stroke="black" points="966.5,-89.5 966.5,-112.5 1026.5,-112.5 1026.5,-89.5 966.5,-89.5"/>
<text text-anchor="start" x="988.5" y="-97.3" font-family="arial" font-size="14.00">14</text>
<polygon fill="none" stroke="black" points="1026.5,-89.5 1026.5,-112.5 1185.5,-112.5 1185.5,-89.5 1026.5,-89.5"/>
<text text-anchor="start" x="1064.5" y="-97.3" font-family="arial" font-size="14.00">Chassis GND</text>
<polygon fill="none" stroke="black" points="966.5,-66.5 966.5,-89.5 1026.5,-89.5 1026.5,-66.5 966.5,-66.5"/>
<text text-anchor="start" x="988.5" y="-74.3" font-family="arial" font-size="14.00">15</text>
<polygon fill="none" stroke="black" points="1026.5,-66.5 1026.5,-89.5 1185.5,-89.5 1185.5,-66.5 1026.5,-66.5"/>
<text text-anchor="start" x="1090.5" y="-74.3" font-family="arial" font-size="14.00">GND</text>
</g>
<!-- Right Coin Counter -->
<g id="node3" class="node">
<title>Right Coin Counter</title>
<polygon fill="#ffffff" stroke="black" points="1182,-632 969,-632 969,-517 1182,-517 1182,-632"/>
<polygon fill="none" stroke="black" points="969.5,-608.5 969.5,-631.5 1182.5,-631.5 1182.5,-608.5 969.5,-608.5"/>
<text text-anchor="start" x="1018.5" y="-616.3" font-family="arial" font-size="14.00">Right Coin Counter</text>
<polygon fill="none" stroke="black" points="969.5,-585.5 969.5,-608.5 1093.5,-608.5 1093.5,-585.5 969.5,-585.5"/>
<text text-anchor="start" x="973.5" y="-593.3" font-family="arial" font-size="14.00">Molex 0003091032</text>
<polygon fill="none" stroke="black" points="1093.5,-585.5 1093.5,-608.5 1143.5,-608.5 1143.5,-585.5 1093.5,-585.5"/>
<text text-anchor="start" x="1097.5" y="-593.3" font-family="arial" font-size="14.00">female</text>
<polygon fill="none" stroke="black" points="1143.5,-585.5 1143.5,-608.5 1182.5,-608.5 1182.5,-585.5 1143.5,-585.5"/>
<text text-anchor="start" x="1147.5" y="-593.3" font-family="arial" font-size="14.00">3&#45;pin</text>
<polygon fill="none" stroke="black" points="969.5,-562.5 969.5,-585.5 1028.5,-585.5 1028.5,-562.5 969.5,-562.5"/>
<text text-anchor="start" x="995" y="-570.3" font-family="arial" font-size="14.00">1</text>
<polygon fill="none" stroke="black" points="1028.5,-562.5 1028.5,-585.5 1182.5,-585.5 1182.5,-562.5 1028.5,-562.5"/>
<text text-anchor="start" x="1077.5" y="-570.3" font-family="arial" font-size="14.00">+10V DC</text>
<polygon fill="none" stroke="black" points="969.5,-539.5 969.5,-562.5 1028.5,-562.5 1028.5,-539.5 969.5,-539.5"/>
<text text-anchor="start" x="995" y="-547.3" font-family="arial" font-size="14.00">2</text>
<polygon fill="none" stroke="black" points="1028.5,-539.5 1028.5,-562.5 1182.5,-562.5 1182.5,-539.5 1028.5,-539.5"/>
<text text-anchor="start" x="1103" y="-547.3" font-family="arial" font-size="14.00">&#45;</text>
<polygon fill="none" stroke="black" points="969.5,-516.5 969.5,-539.5 1028.5,-539.5 1028.5,-516.5 969.5,-516.5"/>
<text text-anchor="start" x="995" y="-524.3" font-family="arial" font-size="14.00">3</text>
<polygon fill="none" stroke="black" points="1028.5,-516.5 1028.5,-539.5 1182.5,-539.5 1182.5,-516.5 1028.5,-516.5"/>
<text text-anchor="start" x="1054" y="-524.3" font-family="arial" font-size="14.00">Right Coin Meter</text>
</g>
<!-- Main Harness&#45;&#45;Lunar Lander -->
<g id="edge2" class="edge">
<title>Main Harness:e&#45;&#45;Lunar Lander:w</title>
<path fill="none" stroke="#000000" stroke-width="2" d="M816,-402.5C882.22,-402.56 898.84,-398.56 966,-398.5"/>
<path fill="none" stroke="#ceb673" stroke-width="2" d="M816,-404.5C882.69,-404.5 899.31,-400.5 966,-400.5"/>
<path fill="none" stroke="#000000" stroke-width="2" d="M816,-406.5C883.16,-406.44 899.78,-402.44 966,-402.5"/>
</g>
<!-- Main Harness&#45;&#45;Lunar Lander -->
<g id="edge4" class="edge">
<title>Main Harness:e&#45;&#45;Lunar Lander:w</title>
<path fill="none" stroke="#000000" stroke-width="2" d="M816,-377.5C882.43,-377.51 899.09,-375.51 966,-375.5"/>
<path fill="none" stroke="#ceb673" stroke-width="2" d="M816,-379.5C882.67,-379.5 899.33,-377.5 966,-377.5"/>
<path fill="none" stroke="#000000" stroke-width="2" d="M816,-381.5C882.91,-381.49 899.57,-379.49 966,-379.5"/>
</g>
<!-- Main Harness&#45;&#45;Lunar Lander -->
<g id="edge6" class="edge">
<title>Main Harness:e&#45;&#45;Lunar Lander:w</title>
<path fill="none" stroke="#000000" stroke-width="2" d="M816,-352.5C882.67,-352.5 899.33,-352.5 966,-352.5"/>
<path fill="none" stroke="#ffffff" stroke-width="2" d="M816,-354.5C882.67,-354.5 899.33,-354.5 966,-354.5"/>
<path fill="none" stroke="#000000" stroke-width="2" d="M816,-356.5C882.67,-356.5 899.33,-356.5 966,-356.5"/>
</g>
<!-- Main Harness&#45;&#45;Lunar Lander -->
<g id="edge8" class="edge">
<title>Main Harness:e&#45;&#45;Lunar Lander:w</title>
<path fill="none" stroke="#000000" stroke-width="2" d="M816,-327.5C882.91,-327.51 899.57,-329.51 966,-329.5"/>
<path fill="none" stroke="#ff66cc" stroke-width="2" d="M816,-329.5C882.67,-329.5 899.33,-331.5 966,-331.5"/>
<path fill="none" stroke="#000000" stroke-width="2" d="M816,-331.5C882.43,-331.49 899.09,-333.49 966,-333.5"/>
</g>
<!-- Main Harness&#45;&#45;Lunar Lander -->
<g id="edge10" class="edge">
<title>Main Harness:e&#45;&#45;Lunar Lander:w</title>
<path fill="none" stroke="#000000" stroke-width="2" d="M816,-302.5C883.16,-302.56 899.78,-306.56 966,-306.5"/>
<path fill="none" stroke="#000000" stroke-width="2" d="M816,-304.5C882.69,-304.5 899.31,-308.5 966,-308.5"/>
<path fill="none" stroke="#000000" stroke-width="2" d="M816,-306.5C882.22,-306.44 898.84,-310.44 966,-310.5"/>
</g>
<!-- Main Harness&#45;&#45;Lunar Lander -->
<g id="edge12" class="edge">
<title>Main Harness:e&#45;&#45;Lunar Lander:w</title>
<path fill="none" stroke="#000000" stroke-width="2" d="M816,-277.5C883.4,-277.62 899.96,-283.62 966,-283.5"/>
<path fill="none" stroke="#ff8000" stroke-width="2" d="M816,-279.5C882.72,-279.5 899.28,-285.5 966,-285.5"/>
<path fill="none" stroke="#000000" stroke-width="2" d="M816,-281.5C882.04,-281.38 898.6,-287.38 966,-287.5"/>
</g>
<!-- Main Harness&#45;&#45;Lunar Lander -->
<g id="edge14" class="edge">
<title>Main Harness:e&#45;&#45;Lunar Lander:w</title>
<path fill="none" stroke="#000000" stroke-width="2" d="M816,-252.5C882.97,-253.9 895.21,-214.9 966,-213.5"/>
<path fill="none" stroke="#895956" stroke-width="2" d="M816,-254.5C884.88,-254.5 897.12,-215.5 966,-215.5"/>
<path fill="none" stroke="#000000" stroke-width="2" d="M816,-256.5C886.79,-255.1 899.03,-216.1 966,-217.5"/>
</g>
<!-- Main Harness&#45;&#45;Lunar Lander -->
<g id="edge16" class="edge">
<title>Main Harness:e&#45;&#45;Lunar Lander:w</title>
<path fill="none" stroke="#000000" stroke-width="2" d="M816,-227.5C890.19,-229.56 887.81,-146.56 966,-144.5"/>
<path fill="none" stroke="#999999" stroke-width="2" d="M816,-229.5C892.19,-229.5 889.81,-146.5 966,-146.5"/>
<path fill="none" stroke="#000000" stroke-width="2" d="M816,-231.5C894.19,-229.44 891.81,-146.44 966,-148.5"/>
</g>
<!-- Main Harness&#45;&#45;Lunar Lander -->
<g id="edge18" class="edge">
<title>Main Harness:e&#45;&#45;Lunar Lander:w</title>
<path fill="none" stroke="#000000" stroke-width="2" d="M816,-202.5C889.77,-204.54 888.23,-123.54 966,-121.5"/>
<path fill="none" stroke="#ffffff" stroke-width="2" d="M816,-204.5C891.77,-204.5 890.23,-123.5 966,-123.5"/>
<path fill="none" stroke="#000000" stroke-width="2" d="M816,-206.5C893.77,-204.46 892.23,-123.46 966,-125.5"/>
</g>
<!-- Main Harness&#45;&#45;Lunar Lander -->
<g id="edge20" class="edge">
<title>Main Harness:e&#45;&#45;Lunar Lander:w</title>
<path fill="none" stroke="#000000" stroke-width="2" d="M816,-177.5C889.35,-179.52 888.65,-100.52 966,-98.5"/>
<path fill="none" stroke="#708000" stroke-width="2" d="M816,-179.5C891.35,-179.5 890.65,-100.5 966,-100.5"/>
<path fill="none" stroke="#000000" stroke-width="2" d="M816,-181.5C893.35,-179.48 892.65,-100.48 966,-102.5"/>
</g>
<!-- Main Harness&#45;&#45;Lunar Lander -->
<g id="edge22" class="edge">
<title>Main Harness:e&#45;&#45;Lunar Lander:w</title>
<path fill="none" stroke="#000000" stroke-width="2" d="M816,-152.5C884.88,-154.2 893.17,-100.2 966,-98.5"/>
<path fill="none" stroke="#708000" stroke-width="2" d="M816,-154.5C886.86,-154.5 895.14,-100.5 966,-100.5"/>
<path fill="none" stroke="#000000" stroke-width="2" d="M816,-156.5C888.83,-154.8 897.12,-100.8 966,-102.5"/>
</g>
<!-- Right Coin Harness&#45;&#45;Right Coin Counter -->
<g id="edge24" class="edge">
<title>Right Coin Harness:e&#45;&#45;Right Coin Counter:w</title>
<path fill="none" stroke="#000000" stroke-width="2" d="M822,-561.5C888.32,-561.8 904.3,-571.8 968.5,-571.5"/>
<path fill="none" stroke="#ffffff" stroke-width="2" d="M822,-563.5C887.26,-563.5 903.24,-573.5 968.5,-573.5"/>
<path fill="none" stroke="#000000" stroke-width="2" d="M822,-565.5C886.2,-565.2 902.18,-575.2 968.5,-575.5"/>
</g>
<!-- Right Coin Harness&#45;&#45;Right Coin Counter -->
<g id="edge26" class="edge">
<title>Right Coin Harness:e&#45;&#45;Right Coin Counter:w</title>
<path fill="none" stroke="#000000" stroke-width="2" d="M822,-536.5C886.16,-536.85 902.07,-525.85 968.5,-525.5"/>
<path fill="none" stroke="#ff0000" stroke-width="2" d="M822,-538.5C887.29,-538.5 903.21,-527.5 968.5,-527.5"/>
<path fill="none" stroke="#000000" stroke-width="2" d="M822,-540.5C888.43,-540.15 904.34,-529.15 968.5,-529.5"/>
</g>
<!-- GND Loopback -->
<g id="node6" class="node">
<title>GND Loopback</title>
<polygon fill="#ffffff" stroke="black" points="678.5,-109 471.5,-109 471.5,0 678.5,0 678.5,-109"/>
<polygon fill="none" stroke="black" points="472,-85.5 472,-108.5 679,-108.5 679,-85.5 472,-85.5"/>
<text text-anchor="start" x="528.5" y="-93.3" font-family="arial" font-size="14.00">GND Loopback</text>
<polygon fill="none" stroke="black" points="472,-62.5 472,-85.5 562,-85.5 562,-62.5 472,-62.5"/>
<text text-anchor="start" x="509.5" y="-70.3" font-family="arial" font-size="14.00">1x</text>
<polygon fill="none" stroke="black" points="562,-62.5 562,-85.5 679,-85.5 679,-62.5 562,-62.5"/>
<text text-anchor="start" x="599.5" y="-70.3" font-family="arial" font-size="14.00">6.0 cm</text>
<text text-anchor="start" x="474" y="-49.3" font-family="arial" font-size="14.00"> </text>
<text text-anchor="start" x="482" y="-30.3" font-family="arial" font-size="14.00"> &#160;&#160;&#160;&#160;1:BK &#160;&#160;&#160;</text>
<text text-anchor="start" x="550" y="-30.3" font-family="arial" font-size="14.00">Lunar Lander:5:GND</text>
<polygon fill="#000000" stroke="none" points="472,-22.5 472,-24.5 679,-24.5 679,-22.5 472,-22.5"/>
<polygon fill="#000000" stroke="none" points="472,-20.5 472,-22.5 679,-22.5 679,-20.5 472,-20.5"/>
<polygon fill="#000000" stroke="none" points="472,-18.5 472,-20.5 679,-20.5 679,-18.5 472,-18.5"/>
<text text-anchor="start" x="474" y="-5.3" font-family="arial" font-size="14.00"> </text>
</g>
<!-- GND Loopback&#45;&#45;Lunar Lander -->
<g id="edge27" class="edge">
<title>GND Loopback:e&#45;&#45;Lunar Lander:w</title>
<path fill="none" stroke="#000000" stroke-width="2" d="M680,-19.5C758.89,-21.1 768.35,-66.93 823.38,-119.05 899.97,-193.85 862.65,-309.12 966,-306.5"/>
<path fill="none" stroke="#000000" stroke-width="2" d="M680,-21.5C756.94,-21.5 766.39,-67.33 822,-120.5 898.07,-193.24 860.75,-308.5 966,-308.5"/>
<path fill="none" stroke="#000000" stroke-width="2" d="M680,-23.5C754.98,-21.9 764.44,-67.74 820.62,-121.95 896.17,-192.62 858.85,-307.88 966,-310.5"/>
</g>
<!-- GND Loopback&#45;&#45;Lunar Lander -->
<g id="edge28" class="edge">
<title>GND Loopback:e&#45;&#45;Lunar Lander:w</title>
<path fill="none" stroke="#000000" stroke-width="2" d="M680,-19.5C758.93,-21.36 762.64,-73.94 823.21,-118.91 889.98,-170.56 885.25,-238.64 966,-236.5"/>
<path fill="none" stroke="#000000" stroke-width="2" d="M680,-21.5C756.94,-21.5 760.64,-74.08 822,-120.5 887.99,-170.42 883.26,-238.5 966,-238.5"/>
<path fill="none" stroke="#000000" stroke-width="2" d="M680,-23.5C754.94,-21.64 758.65,-74.22 820.79,-122.09 885.99,-170.28 881.26,-238.36 966,-240.5"/>
</g>
<!-- GND Loopback&#45;&#45;Lunar Lander -->
<g id="edge29" class="edge">
<title>GND Loopback:e&#45;&#45;Lunar Lander:w</title>
<path fill="none" stroke="#000000" stroke-width="2" d="M680,-19.5C825.12,-21.5 824.88,-169.5 966,-167.5"/>
<path fill="none" stroke="#000000" stroke-width="2" d="M680,-21.5C823.12,-21.5 822.88,-169.5 966,-169.5"/>
<path fill="none" stroke="#000000" stroke-width="2" d="M680,-23.5C821.12,-21.5 820.88,-169.5 966,-171.5"/>
</g>
<!-- GND Loopback&#45;&#45;Lunar Lander -->
<g id="edge30" class="edge">
<title>GND Loopback:e&#45;&#45;Lunar Lander:w</title>
<path fill="none" stroke="#000000" stroke-width="2" d="M680,-19.5C811.33,-20.63 838.28,-76.63 966,-75.5"/>
<path fill="none" stroke="#000000" stroke-width="2" d="M680,-21.5C809.52,-21.5 836.48,-77.5 966,-77.5"/>
<path fill="none" stroke="#000000" stroke-width="2" d="M680,-23.5C807.72,-22.37 834.67,-78.37 966,-79.5"/>
</g>
</g>
</svg>
